<svg width="128" height="32" viewBox="0 0 128 32" fill="none" xmlns="http://www.w3.org/2000/svg">
<path d="M33.6424 8H46.5918V10.4384H41.4931V24.1839H38.6984V10.4384H33.6211L33.6424 8ZM46.0371 12.4668H48.4264V14.7325H48.4691C48.5544 14.4088 48.7038 14.1067 48.9171 13.8046C49.1304 13.5025 49.3864 13.222 49.7064 12.9846C50.0051 12.7257 50.3464 12.5315 50.7304 12.3805C51.0931 12.2294 51.4771 12.1431 51.8611 12.1431C52.1598 12.1431 52.3731 12.1647 52.4798 12.1647C52.5864 12.1862 52.7144 12.2078 52.8211 12.2078V14.6894C52.6504 14.6462 52.4584 14.6246 52.2664 14.603C52.0744 14.5815 51.9038 14.5599 51.7118 14.5599C51.2851 14.5599 50.8798 14.6462 50.4958 14.8188C50.1118 14.9915 49.7918 15.2504 49.4931 15.5741C49.2158 15.9193 48.9811 16.3293 48.8104 16.8256C48.6398 17.3219 48.5544 17.9046 48.5544 18.5519V24.1192H45.9944L46.0371 12.4668ZM64.5544 24.1839H62.0371V22.544H61.9944C61.6744 23.1482 61.2051 23.6013 60.5864 23.9682C59.9678 24.335 59.3278 24.5076 58.6878 24.5076C57.1731 24.5076 56.0638 24.1408 55.3811 23.364C54.6984 22.6087 54.3571 21.4435 54.3571 19.9114V12.4668H56.9171V19.6524C56.9171 20.6882 57.1091 21.4219 57.5144 21.8319C57.8984 22.2634 58.4531 22.4792 59.1571 22.4792C59.6904 22.4792 60.1384 22.3929 60.5011 22.2203C60.8638 22.0477 61.1624 21.8319 61.3758 21.5514C61.6104 21.2708 61.7598 20.9256 61.8664 20.5372C61.9731 20.1487 62.0158 19.7172 62.0158 19.264V12.4668H64.5758V24.1839H64.5544ZM68.9064 20.4293C68.9918 21.1845 69.2691 21.7024 69.7598 22.0261C70.2504 22.3282 70.8478 22.4792 71.5304 22.4792C71.7651 22.4792 72.0424 22.4577 72.3411 22.4145C72.6398 22.3713 72.9384 22.3066 73.1944 22.1987C73.4718 22.0908 73.6851 21.9398 73.8558 21.724C74.0264 21.5082 74.1118 21.2493 74.0904 20.9256C74.0691 20.6019 73.9624 20.3214 73.7278 20.1056C73.4931 19.8898 73.2158 19.7387 72.8744 19.5877C72.5331 19.4582 72.1278 19.3503 71.6798 19.264C71.2318 19.1777 70.7838 19.0698 70.3144 18.9619C69.8451 18.854 69.3758 18.7246 68.9278 18.5735C68.4798 18.4225 68.0958 18.2282 67.7331 17.9477C67.3918 17.6888 67.0931 17.3651 66.9011 16.9551C66.6878 16.5451 66.5811 16.0704 66.5811 15.4662C66.5811 14.8188 66.7304 14.3009 67.0504 13.8694C67.3491 13.4378 67.7544 13.0925 68.2238 12.8336C68.6931 12.5747 69.2264 12.3805 69.8024 12.2726C70.3784 12.1647 70.9331 12.1215 71.4451 12.1215C72.0424 12.1215 72.6184 12.1862 73.1518 12.3157C73.6851 12.4452 74.1971 12.6394 74.6238 12.9415C75.0718 13.222 75.4344 13.6104 75.7118 14.0636C76.0104 14.5167 76.1811 15.0778 76.2664 15.7251H73.5998C73.4718 15.0994 73.1944 14.6894 72.7678 14.4736C72.3198 14.2578 71.8291 14.1499 71.2531 14.1499C71.0824 14.1499 70.8478 14.1715 70.6131 14.1931C70.3571 14.2362 70.1438 14.2794 69.9091 14.3657C69.6958 14.452 69.5038 14.5815 69.3544 14.7325C69.2051 14.8836 69.1198 15.0994 69.1198 15.3583C69.1198 15.682 69.2264 15.9193 69.4398 16.1135C69.6531 16.3078 69.9304 16.4588 70.2931 16.6099C70.6344 16.7393 71.0398 16.8472 71.4878 16.9335C71.9358 17.0198 72.4051 17.1277 72.8744 17.2356C73.3438 17.3435 73.7918 17.473 74.2398 17.624C74.6878 17.7751 75.0931 17.9693 75.4344 18.2498C75.7758 18.5088 76.0744 18.8325 76.2878 19.2209C76.5011 19.6093 76.6078 20.1056 76.6078 20.6666C76.6078 21.3571 76.4584 21.9398 76.1384 22.4361C75.8184 22.9108 75.4131 23.3208 74.9224 23.6229C74.4318 23.925 73.8558 24.1408 73.2584 24.2918C72.6398 24.4213 72.0424 24.5076 71.4451 24.5076C70.7198 24.5076 70.0371 24.4213 69.4184 24.2487C68.7998 24.076 68.2451 23.8171 67.7971 23.4934C67.3491 23.1482 66.9864 22.7382 66.7304 22.2203C66.4744 21.724 66.3251 21.1198 66.3038 20.4077H68.8851V20.4293H68.9064ZM77.3331 12.4668H79.2744V8.92788H81.8344V12.4452H84.1384V14.3657H81.8344V20.6235C81.8344 20.904 81.8558 21.1198 81.8771 21.3356C81.8984 21.5298 81.9624 21.7024 82.0264 21.8319C82.1118 21.9613 82.2398 22.0692 82.3891 22.134C82.5598 22.1987 82.7731 22.2419 83.0718 22.2419C83.2424 22.2419 83.4344 22.2419 83.6051 22.2203C83.7758 22.1987 83.9678 22.1771 84.1384 22.134V24.1408C83.8611 24.1839 83.5838 24.2055 83.3064 24.2271C83.0291 24.2703 82.7731 24.2703 82.4744 24.2703C81.7918 24.2703 81.2584 24.2055 80.8531 24.076C80.4478 23.9466 80.1278 23.7524 79.8931 23.515C79.6584 23.2561 79.5091 22.954 79.4238 22.5871C79.3384 22.2203 79.2958 21.7671 79.2744 21.2924V14.3873H77.3331V12.4236V12.4668ZM85.9304 12.4668H88.3411V14.0636H88.3838C88.7464 13.3731 89.2371 12.8983 89.8771 12.5962C90.5171 12.2941 91.1998 12.1431 91.9678 12.1431C92.8851 12.1431 93.6744 12.2941 94.3571 12.6394C95.0398 12.9631 95.5945 13.3946 96.0424 13.9773C96.4905 14.5383 96.8318 15.2072 97.0451 15.9625C97.2584 16.7177 97.3864 17.5377 97.3864 18.3793C97.3864 19.1777 97.2798 19.933 97.0878 20.6666C96.8745 21.4003 96.5758 22.0692 96.1704 22.6303C95.7651 23.1913 95.2531 23.6445 94.6131 23.9897C93.9731 24.335 93.2478 24.5076 92.3944 24.5076C92.0318 24.5076 91.6478 24.4645 91.2851 24.3997C90.9224 24.335 90.5598 24.2271 90.2184 24.076C89.8771 23.925 89.5571 23.7308 89.2798 23.4934C88.9811 23.2561 88.7464 22.9755 88.5544 22.6734H88.5118V28.5212H85.9518V12.4668H85.9304ZM94.8691 18.3361C94.8691 17.8183 94.8051 17.3004 94.6558 16.8041C94.5278 16.3078 94.3144 15.8762 94.0371 15.4878C93.7598 15.0994 93.4184 14.7973 93.0345 14.5599C92.6291 14.3225 92.1598 14.2146 91.6478 14.2146C90.5811 14.2146 89.7705 14.5815 89.2158 15.3367C88.6824 16.092 88.4051 17.1062 88.4051 18.3577C88.4051 18.9619 88.4691 19.5014 88.6184 19.9977C88.7678 20.494 88.9598 20.9256 89.2584 21.2924C89.5358 21.6592 89.8771 21.9398 90.2824 22.1555C90.6878 22.3713 91.1358 22.4792 91.6691 22.4792C92.2664 22.4792 92.7358 22.3498 93.1411 22.1124C93.5464 21.875 93.8664 21.5513 94.1438 21.1845C94.3998 20.7961 94.5918 20.3645 94.6984 19.8682C94.8051 19.3503 94.8691 18.854 94.8691 18.3361ZM99.3704 8H101.93V10.4384H99.3704V8ZM99.3704 12.4668H101.93V24.1839H99.3704V12.4668ZM104.213 8H106.773V24.1839H104.213V8ZM114.581 24.5076C113.664 24.5076 112.832 24.3566 112.106 24.0329C111.381 23.7092 110.784 23.2992 110.272 22.7598C109.781 22.2203 109.397 21.5514 109.141 20.7961C108.885 20.0408 108.736 19.1993 108.736 18.3146C108.736 17.4298 108.864 16.6099 109.141 15.8546C109.397 15.0994 109.781 14.452 110.272 13.891C110.762 13.3515 111.381 12.9199 112.106 12.6178C112.832 12.3157 113.664 12.1431 114.581 12.1431C115.498 12.1431 116.33 12.2941 117.056 12.6178C117.781 12.9199 118.378 13.3515 118.89 13.891C119.381 14.4304 119.765 15.0994 120.021 15.8546C120.277 16.6099 120.426 17.4298 120.426 18.3146C120.426 19.2209 120.298 20.0408 120.021 20.7961C119.744 21.5514 119.381 22.1987 118.89 22.7598C118.4 23.2992 117.781 23.7308 117.056 24.0329C116.33 24.335 115.52 24.5076 114.581 24.5076ZM114.581 22.4577C115.136 22.4577 115.648 22.3282 116.053 22.0908C116.48 21.8535 116.8 21.5298 117.077 21.1414C117.354 20.7529 117.546 20.2998 117.674 19.8251C117.802 19.3288 117.866 18.8324 117.866 18.3146C117.866 17.8183 117.802 17.3219 117.674 16.8256C117.546 16.3293 117.354 15.8978 117.077 15.5093C116.8 15.1209 116.458 14.8188 116.053 14.5815C115.626 14.3441 115.136 14.2146 114.581 14.2146C114.026 14.2146 113.514 14.3441 113.109 14.5815C112.682 14.8188 112.362 15.1425 112.085 15.5093C111.808 15.8978 111.616 16.3293 111.488 16.8256C111.36 17.3219 111.296 17.8183 111.296 18.3146C111.296 18.8324 111.36 19.3288 111.488 19.8251C111.616 20.3214 111.808 20.7529 112.085 21.1414C112.362 21.5298 112.704 21.8535 113.109 22.0908C113.536 22.3498 114.026 22.4577 114.581 22.4577ZM121.194 12.4668H123.136V8.92788H125.696V12.4452H128V14.3657H125.696V20.6235C125.696 20.904 125.717 21.1198 125.738 21.3356C125.76 21.5298 125.824 21.7024 125.888 21.8319C125.973 21.9613 126.101 22.0692 126.25 22.134C126.421 22.1987 126.634 22.2419 126.933 22.2419C127.104 22.2419 127.296 22.2419 127.466 22.2203C127.637 22.1987 127.829 22.1771 128 22.134V24.1408C127.722 24.1839 127.445 24.2055 127.168 24.2271C126.89 24.2703 126.634 24.2703 126.336 24.2703C125.653 24.2703 125.12 24.2055 124.714 24.076C124.309 23.9466 123.989 23.7524 123.754 23.515C123.52 23.2561 123.37 22.954 123.285 22.5871C123.2 22.2203 123.157 21.7671 123.136 21.2924V14.3873H121.194V12.4236V12.4668Z" fill="white"/>
<path d="M30.656 11.264H18.944L15.3387 0L11.712 11.264L0 11.2424L9.472 18.2123L5.84534 29.4764L15.3173 22.5065L24.7893 29.4764L21.184 18.2123L30.656 11.264Z" fill="white"/>
<path d="M21.9946 20.7597L21.184 18.2134L15.3386 22.5075L21.9946 20.7597Z" fill="#00B67A"/>
</svg>
