<svg width="26" height="34" viewBox="0 0 26 34" fill="none" xmlns="http://www.w3.org/2000/svg">
<path d="M0.140625 15.2002V19.2402L8.13063 21.1402L4.17063 26.9102L7.06063 29.8202L11.9506 24.9002L15.6906 21.1402L15.7706 21.0602L15.8006 21.0202L19.5506 17.2602L15.8006 13.4902L15.7706 13.4502L15.6906 13.3702L11.8706 9.53016L7.03062 4.66016L4.14063 7.57016L8.06063 13.3002L0.140625 15.2002Z" fill="white"/>
<path d="M25.8905 15.2002V19.2402L17.8905 21.1402L21.8505 26.9102L18.9605 29.8202L14.0805 24.9002L10.3405 21.1402L10.2605 21.0602L10.2205 21.0202L6.48047 17.2602L10.2205 13.4902L10.2605 13.4502L10.3405 13.3702L14.1505 9.53016L18.9905 4.66016L21.8805 7.57016L17.9705 13.3002L25.8905 15.2002Z" fill="white"/>
<path d="M14.8412 0.769531H11.4512V4.17953H14.8412V0.769531Z" fill="#06E3D6"/>
<path d="M14.8412 29.8203H11.4512V33.2303H14.8412V29.8203Z" fill="#06E3D6"/>
</svg>
