<svg width="216" height="34" viewBox="0 0 216 34" fill="none" xmlns="http://www.w3.org/2000/svg">
<path d="M4.14062 15.2002V19.2402L12.1306 21.1402L8.17063 26.9102L11.0606 29.8202L15.9506 24.9002L19.6906 21.1402L19.7706 21.0602L19.8006 21.0202L23.5506 17.2602L19.8006 13.4902L19.7706 13.4502L19.6906 13.3702L15.8706 9.53016L11.0306 4.66016L8.14063 7.57016L12.0606 13.3002L4.14062 15.2002Z" fill="#100F22"/>
<path d="M29.8905 15.2002V19.2402L21.8905 21.1402L25.8505 26.9102L22.9605 29.8202L18.0805 24.9002L14.3405 21.1402L14.2605 21.0602L14.2205 21.0202L10.4805 17.2602L14.2205 13.4902L14.2605 13.4502L14.3405 13.3702L18.1505 9.53016L22.9905 4.66016L25.8805 7.57016L21.9705 13.3002L29.8905 15.2002Z" fill="#100F22"/>
<path d="M18.8412 0.769531H15.4512V4.17953H18.8412V0.769531Z" fill="#06E3D6"/>
<path d="M18.8412 29.8203H15.4512V33.2303H18.8412V29.8203Z" fill="#06E3D6"/>
<path d="M45.5202 11.5125C44.5102 11.5125 43.8402 11.8825 43.8402 12.6225C43.8402 15.3025 52.3102 13.7825 52.3102 19.6025C52.3102 22.9025 49.4202 24.5925 45.8302 24.5925C43.1402 24.5925 40.3402 23.6025 38.4102 22.0025L40.0402 18.7025C41.6902 20.1325 44.2002 21.1525 45.8702 21.1525C47.1102 21.1525 47.8902 20.6925 47.8902 19.8325C47.8902 17.0825 39.4202 18.7425 39.4202 13.0125C39.4202 9.9825 41.9702 8.0625 45.8502 8.0625C48.2202 8.0625 50.6002 8.8025 52.2802 9.8925L50.7002 13.2425C49.0002 12.2725 46.8402 11.5125 45.5102 11.5125" fill="#100F22"/>
<path d="M59.9395 8.25V11.74H64.7195V24.45H68.9195V11.74H73.7495V8.25H59.9395Z" fill="#100F22"/>
<path d="M87.4395 8.28125V9.99125H92.6794V24.4513H94.5094V9.99125H99.7695V8.28125H87.4395Z" fill="#100F22"/>
<path d="M119.85 24.4513L116.47 19.2713C116.15 19.2913 115.8 19.3212 115.44 19.3212H111.17V24.4513H109.33V8.28125H115.44C119.46 8.28125 121.78 10.2713 121.78 13.7113C121.78 16.3713 120.47 18.1913 118.15 18.9313L121.94 24.4513H119.85ZM115.44 17.6113C118.36 17.6113 120.01 16.2913 120.01 13.7513C120.01 11.2113 118.36 9.98125 115.44 9.98125H111.17V17.6113H115.44Z" fill="#100F22"/>
<path d="M138.59 10.2913L142.24 18.6113H134.98L138.59 10.2913ZM137.69 8.28125L130.48 24.4613H132.43L134.22 20.3212H142.97L144.78 24.4613H146.78L139.59 8.28125H137.68H137.69Z" fill="#100F22"/>
<path d="M170.969 16.3713C170.969 20.9713 167.359 24.4613 162.629 24.4613H156.199V8.28125H162.699C167.389 8.28125 170.969 11.7713 170.969 16.3713ZM169.109 16.3912C169.109 12.7412 166.259 9.99125 162.659 9.99125H158.039V22.7513H162.719C166.299 22.7513 169.109 20.0212 169.109 16.4012" fill="#100F22"/>
<path d="M181.211 8.28125V24.4513H192.421V22.7413H183.051V17.1013H191.151V15.4213H183.051V9.99125H192.121V8.28125H181.211Z" fill="#100F22"/>
<path d="M213.571 24.4513L210.191 19.2713C209.871 19.2913 209.521 19.3212 209.161 19.3212H204.891V24.4513H203.051V8.28125H209.161C213.181 8.28125 215.501 10.2713 215.501 13.7113C215.501 16.3713 214.191 18.1913 211.871 18.9313L215.661 24.4513H213.571ZM209.161 17.6113C212.081 17.6113 213.731 16.2913 213.731 13.7513C213.731 11.2113 212.081 9.98125 209.161 9.98125H204.891V17.6113H209.161Z" fill="#100F22"/>
</svg>
