<svg width="32" height="32" viewBox="0 0 32 32" fill="none" xmlns="http://www.w3.org/2000/svg">
<path d="M30 16.0006C30.0008 16.3402 29.9138 16.6741 29.7473 16.9701C29.5808 17.266 29.3406 17.5138 29.05 17.6894L11.04 28.7069C10.7364 28.8928 10.3886 28.9943 10.0326 29.0009C9.67661 29.0075 9.32532 28.9189 9.015 28.7444C8.70764 28.5725 8.4516 28.3219 8.2732 28.0183C8.09481 27.7147 8.00051 27.369 8 27.0169V4.98437C8.00051 4.63223 8.09481 4.28658 8.2732 3.98296C8.4516 3.67935 8.70764 3.42873 9.015 3.25687C9.32532 3.08231 9.67661 2.99375 10.0326 3.00034C10.3886 3.00694 10.7364 3.10844 11.04 3.29437L29.05 14.3119C29.3406 14.4875 29.5808 14.7353 29.7473 15.0312C29.9138 15.3271 30.0008 15.6611 30 16.0006Z" fill="white"/>
</svg>
