<svg width="240" height="154" viewBox="0 0 240 154" fill="none" xmlns="http://www.w3.org/2000/svg">
<g clip-path="url(#clip0_15_68301)">
<path d="M27.7449 0.0507812C27.7193 0.200065 27.4292 0.517138 26.9932 0.914404C26.8849 1.01557 26.7691 1.12044 26.6459 1.23148C26.5226 1.34252 26.3963 1.45725 26.2625 1.57446C25.9979 1.81011 25.7122 2.05809 25.4221 2.30484L24.5726 3.04509C24.2945 3.2832 24.0269 3.50898 23.7954 3.71625C23.3263 4.12832 22.9625 4.44786 22.8271 4.57987C20.7419 6.61263 18.9275 8.82249 17.4148 11.1718C15.8422 13.6479 14.6108 16.3375 14.0606 18.9789C13.6373 20.9028 13.6186 22.8719 14.005 24.801C14.0892 25.1859 14.1839 25.5412 14.2846 25.8731C14.3853 26.205 14.4891 26.5073 14.6033 26.7836C14.7839 27.235 14.9936 27.6781 15.2318 28.1111C15.6954 27.7034 16.1324 27.2759 16.5413 26.8305C16.9682 26.3798 17.3767 25.906 17.7665 25.4092C17.9665 25.1625 18.162 24.9157 18.3529 24.6517C18.5438 24.3877 18.7273 24.1311 18.9167 23.8646C19.2926 23.3328 19.6398 22.7801 19.9947 22.2163C20.1691 21.9338 20.3375 21.6475 20.5043 21.3527C20.6712 21.0578 20.8426 20.7716 21.005 20.4755C21.1673 20.1794 21.3252 19.8808 21.4876 19.5798C21.6499 19.2787 21.8003 18.9752 21.9506 18.668C22.101 18.3608 22.2513 18.0512 22.4017 17.7439L22.8407 16.8075C22.991 16.4942 23.1218 16.1771 23.2601 15.8613C23.3984 15.5454 23.5383 15.2271 23.6706 14.9063C24.2088 13.6306 24.6959 12.3352 25.1545 11.0459C25.374 10.3995 25.6055 9.75914 25.7964 9.11512C25.8987 8.79435 26.0009 8.47604 26.0971 8.1565C26.1933 7.83696 26.282 7.51989 26.3737 7.20405C27.0788 4.68104 27.578 2.23821 27.7449 0.0507812Z" fill="url(#paint0_linear_15_68301)"/>
<path d="M85.5192 122.761C85.8033 122.802 86.0905 122.843 86.3791 122.885C86.8136 122.956 87.2481 123.039 87.6811 123.132L87.8991 123.177L88.1186 123.222L88.5576 123.313C88.8493 123.376 89.141 123.444 89.4296 123.514L90.4745 123.773C90.8233 123.862 91.1691 123.956 91.5119 124.056L91.8036 124.142L92.0952 124.225C92.2907 124.28 92.4831 124.338 92.677 124.397C93.0619 124.521 93.4438 124.644 93.8212 124.775C94.2406 124.913 94.6556 125.06 95.0615 125.215C95.266 125.293 95.4659 125.373 95.6629 125.462C95.8598 125.551 96.1139 125.634 96.3304 125.722C97.3034 126.112 98.2504 126.543 99.1674 127.015C99.4365 127.154 99.6996 127.296 99.9567 127.439C101.703 128.402 103.273 129.565 104.617 130.893C105.689 131.95 106.583 133.12 107.277 134.371C107.539 134.853 107.766 135.348 107.958 135.852C108.128 136.298 108.245 136.689 108.326 137.014C108.411 137.353 108.47 137.696 108.504 138.041C108.504 138.041 108.376 138.008 108.141 137.941C107.907 137.875 107.56 137.775 107.127 137.643C106.258 137.384 105.037 137.01 103.619 136.547C102.911 136.313 102.153 136.06 101.364 135.776C100.575 135.493 99.7643 135.188 98.9449 134.852C97.2484 134.174 95.6396 133.357 94.1429 132.414C93.9339 132.28 93.7295 132.144 93.5265 132.007C93.3235 131.87 93.1431 131.732 92.9567 131.594C92.5838 131.317 92.227 131.037 91.8862 130.755C91.8005 130.683 91.7164 130.614 91.6337 130.543C91.551 130.471 91.4698 130.396 91.3886 130.323C91.2293 130.178 91.0714 130.032 90.9195 129.885C90.6188 129.592 90.3322 129.296 90.0596 128.999C89.5809 128.427 89.1514 127.827 88.7741 127.205L88.4734 126.756C88.3742 126.605 88.2705 126.453 88.1622 126.304C87.9408 125.995 87.6947 125.699 87.4255 125.418C87.3398 125.33 87.2542 125.244 87.17 125.161L86.9144 124.914C86.746 124.752 86.5776 124.596 86.4122 124.45C86.08 124.158 85.7567 123.901 85.459 123.678C85.0311 123.343 84.5793 123.029 84.1059 122.738C84.0247 122.69 84.0533 122.622 84.151 122.629L84.4608 122.657C84.6727 122.674 84.8847 122.692 85.0982 122.715C85.2365 122.726 85.3779 122.743 85.5192 122.761Z" fill="url(#paint1_linear_15_68301)"/>
<path d="M76.0121 142.134C76.3218 142.299 76.6436 142.449 76.9743 142.597C77.4755 142.819 77.9841 143.035 78.5003 143.245L78.7619 143.35L79.0265 143.448L79.5617 143.643C79.9195 143.772 80.2799 143.895 80.6427 144.013C80.8607 144.085 81.0787 144.16 81.3012 144.227C81.5237 144.293 81.7447 144.359 81.9672 144.423C82.4142 144.551 82.8653 144.675 83.3203 144.793L83.7037 144.891L84.0901 144.981C84.3487 145.039 84.6073 145.095 84.8659 145.15C85.383 145.258 85.9002 145.361 86.4189 145.451C86.9932 145.542 87.5645 145.625 88.1343 145.698C88.4185 145.733 88.7027 145.765 88.9838 145.795C89.2424 145.817 89.501 145.836 89.7596 145.853C90.8275 145.922 91.8997 145.934 92.9694 145.889C93.2701 145.876 93.5542 145.859 93.8429 145.837C95.6891 145.693 97.5027 145.343 99.2327 144.794C100.626 144.352 101.972 143.815 103.257 143.191C103.818 142.922 104.331 142.654 104.776 142.412C105.221 142.17 105.607 141.944 105.925 141.753C106.56 141.383 106.905 141.126 106.905 141.126C106.905 141.126 106.794 141.076 106.582 140.99C106.37 140.903 106.063 140.782 105.669 140.64C104.589 140.258 103.476 139.942 102.339 139.697C101.641 139.542 100.878 139.405 100.07 139.288C99.2628 139.171 98.4074 139.081 97.5143 139.027C95.6547 138.907 93.7848 138.951 91.9365 139.157L90.3339 139.347C89.7987 139.416 89.2699 139.49 88.7478 139.571L87.9735 139.694C87.7179 139.734 87.4648 139.776 87.2143 139.817C86.7131 139.908 86.2205 140.006 85.7364 140.112C84.7982 140.312 83.9638 140.582 83.0993 140.84C82.8828 140.903 82.6633 140.964 82.4423 141.025C82.2213 141.087 81.9913 141.138 81.7673 141.187C81.2838 141.293 80.792 141.372 80.2954 141.423C80.1376 141.439 79.9782 141.452 79.8218 141.465L79.5873 141.481L79.3558 141.492C79.0551 141.505 78.7544 141.511 78.4537 141.513C77.8704 141.513 77.3201 141.498 76.824 141.468C76.0917 141.416 75.3635 141.331 74.6425 141.214C74.5192 141.194 74.4771 141.257 74.5778 141.316L74.8951 141.502C75.1136 141.628 75.3336 141.755 75.5551 141.882C75.7039 141.973 75.8543 142.054 76.0121 142.134Z" fill="url(#paint2_linear_15_68301)"/>
<path d="M61.3519 110.901C61.612 111.006 61.8705 111.119 62.1261 111.239C62.3201 111.329 62.5125 111.423 62.7035 111.518L62.9891 111.662L63.2793 111.803C63.7965 112.059 64.3031 112.333 64.8038 112.615C65.1045 112.779 65.4051 112.949 65.7058 113.123C65.8562 113.211 66.0065 113.299 66.1493 113.388C66.2922 113.477 66.441 113.57 66.5898 113.657C66.9221 113.858 67.2514 114.066 67.5731 114.274C67.734 114.38 67.8918 114.489 68.0512 114.597C68.2106 114.706 68.3699 114.811 68.5278 114.919C68.8736 115.16 69.2108 115.407 69.5396 115.66C69.8719 115.906 70.1966 116.153 70.5108 116.417C70.6822 116.559 70.8521 116.703 71.0175 116.848C71.1829 116.992 71.3498 117.133 71.5106 117.278C71.8344 117.567 72.1436 117.862 72.4382 118.163C72.6126 118.338 72.784 118.508 72.9494 118.685C73.2501 119 73.5297 119.323 73.7898 119.646C74.0499 119.969 74.304 120.284 74.5415 120.606C74.7791 120.928 74.9926 121.252 75.188 121.57C75.3835 121.889 75.5789 122.202 75.7533 122.517C75.9277 122.831 76.0871 123.143 76.2344 123.453C76.3818 123.763 76.5231 124.056 76.6479 124.351C76.9004 124.94 77.0989 125.512 77.2733 126.04C77.5541 126.895 77.7645 127.763 77.9032 128.641C77.9513 128.964 77.9814 129.217 77.9964 129.391C78.0115 129.565 78.016 129.659 78.016 129.659C78.016 129.659 77.8927 129.626 77.6702 129.56C77.4477 129.495 77.126 129.384 76.7245 129.242C76.5241 129.172 76.3036 129.092 76.063 129.002C75.8255 128.912 75.5669 128.82 75.2993 128.705C74.7641 128.482 74.1687 128.222 73.5373 127.924C72.9058 127.627 72.2533 127.269 71.5828 126.888C71.249 126.69 70.9137 126.485 70.577 126.271C70.4086 126.164 70.2402 126.053 70.0718 125.94C69.9034 125.828 69.7335 125.716 69.5697 125.594C68.1901 124.617 66.9766 123.493 65.9614 122.251C65.6788 121.897 65.4082 121.543 65.1541 121.19C64.9 120.838 64.6715 120.471 64.455 120.115C64.3452 119.937 64.2415 119.759 64.1408 119.582C64.0911 119.493 64.0415 119.405 63.9904 119.316C63.9393 119.228 63.8987 119.136 63.8536 119.047C63.6752 118.689 63.5138 118.333 63.3695 117.981C63.0868 117.299 62.9606 116.624 62.8147 115.949C62.7426 115.614 62.6644 115.278 62.5667 114.941C62.4716 114.59 62.348 114.245 62.1968 113.908C62.1021 113.697 62.0013 113.493 61.8961 113.291C61.8435 113.193 61.7924 113.098 61.7458 113.004C61.6991 112.911 61.6405 112.817 61.5954 112.726C61.3879 112.362 61.1775 112.032 60.9775 111.739C60.8773 111.594 60.7771 111.459 60.6768 111.335C60.5851 111.212 60.4994 111.088 60.4182 110.989C60.2574 110.779 60.1175 110.618 60.0198 110.495C59.9612 110.428 60.0198 110.372 60.1025 110.404L60.3881 110.51C60.5836 110.581 60.7776 110.653 60.9715 110.728L61.3519 110.901Z" fill="url(#paint3_linear_15_68301)"/>
<path d="M45.0876 126.964C45.3252 127.193 45.5732 127.417 45.8303 127.642C46.0242 127.811 46.2227 127.98 46.4226 128.146L46.7233 128.393L47.0346 128.64C47.5983 129.073 48.1787 129.503 48.777 129.913C49.1409 130.16 49.5097 130.399 49.8836 130.632C50.07 130.756 50.2594 130.867 50.4474 130.983C50.6353 131.099 50.8262 131.213 51.0217 131.322C51.4617 131.569 51.9062 131.811 52.3552 132.05C52.5792 132.167 52.8062 132.284 53.0303 132.397C53.2543 132.509 53.4903 132.616 53.7203 132.722C54.2285 132.957 54.7387 133.18 55.2508 133.393C55.768 133.601 56.2882 133.793 56.8054 133.974C57.0896 134.073 57.3737 134.169 57.6563 134.261C57.939 134.352 58.2261 134.432 58.5088 134.507C59.0771 134.672 59.6389 134.815 60.1942 134.938C60.5204 135.011 60.8482 135.073 61.1699 135.132C61.7532 135.236 62.3235 135.322 62.8808 135.388C63.4386 135.451 63.9873 135.49 64.5181 135.512C65.0488 135.534 65.5629 135.546 66.0636 135.535C66.5642 135.524 67.0529 135.496 67.5219 135.457C67.991 135.419 68.442 135.369 68.875 135.309C69.308 135.25 69.7305 135.17 70.1319 135.089C70.8716 134.94 71.5996 134.755 72.3119 134.533C73.3528 134.206 74.354 133.798 75.3022 133.317C75.6405 133.145 75.9036 132.994 76.075 132.888C76.2464 132.781 76.3381 132.721 76.3381 132.721C76.3381 132.721 76.2208 132.668 76.0013 132.575C75.7818 132.483 75.4661 132.34 75.0586 132.172C74.8557 132.088 74.6317 131.997 74.3851 131.901C74.1385 131.804 73.8724 131.706 73.5928 131.592C73.0305 131.37 72.3901 131.131 71.697 130.888C71.0039 130.645 70.2552 130.374 69.4523 130.123C69.0554 129.992 68.648 129.86 68.2285 129.734C68.0181 129.67 67.8061 129.611 67.5896 129.545C67.3731 129.48 67.1551 129.422 66.9386 129.362C65.1165 128.838 63.2496 128.425 61.3533 128.128C60.8106 128.045 60.2678 127.97 59.7311 127.903C59.1944 127.837 58.6697 127.764 58.145 127.708C57.8819 127.681 57.6203 127.655 57.3602 127.632L56.5889 127.565C56.0788 127.522 55.5751 127.489 55.078 127.468C54.1037 127.431 53.2137 127.474 52.2981 127.499C51.8396 127.511 51.3765 127.516 50.8984 127.499C50.4006 127.477 49.9053 127.427 49.416 127.349C49.1033 127.298 48.7971 127.242 48.4974 127.18C48.3471 127.149 48.1967 127.119 48.0569 127.085C47.9171 127.052 47.7727 127.015 47.6329 126.979C47.0797 126.835 46.567 126.678 46.1069 126.525C45.8784 126.449 45.6559 126.373 45.4605 126.301C45.265 126.228 45.0786 126.151 44.9132 126.083C44.5794 125.946 44.3118 125.828 44.1284 125.743C44.0186 125.692 43.957 125.743 44.0292 125.823L44.2607 126.08C44.4186 126.256 44.5779 126.433 44.7433 126.608L44.9087 126.783L45.0876 126.964Z" fill="url(#paint4_linear_15_68301)"/>
<path d="M42.4911 93.5298C42.7016 93.6964 42.9061 93.8691 43.1075 94.048C43.4192 94.3128 43.7234 94.5855 44.0201 94.866C44.2216 95.0535 44.4155 95.246 44.6125 95.4384C44.8094 95.6309 45.0079 95.8221 45.1988 96.0171C45.4304 96.2527 45.6499 96.4908 45.8769 96.7339C46.1039 96.9769 46.3279 97.2126 46.5414 97.4568C46.6647 97.5963 46.7849 97.7357 46.9037 97.8763C47.0225 98.017 47.1368 98.1601 47.257 98.2995C47.4946 98.5808 47.7246 98.8646 47.9441 99.1532C48.0654 99.312 48.1841 99.472 48.3004 99.6332C48.4167 99.7944 48.534 99.9535 48.6522 100.111C48.8817 100.431 49.0987 100.755 49.3032 101.083C49.5332 101.438 49.7542 101.793 49.9557 102.152C50.0579 102.333 50.1541 102.513 50.2564 102.693C50.3586 102.873 50.4458 103.049 50.5345 103.228C50.6348 103.437 50.735 103.647 50.8352 103.856C50.9194 104.046 50.9991 104.235 51.0742 104.425C51.1494 104.615 51.2246 104.795 51.2922 104.984C51.4306 105.354 51.5493 105.724 51.6516 106.094C51.7538 106.464 51.847 106.817 51.9222 107.173C51.9974 107.528 52.062 107.877 52.1116 108.221C52.1613 108.566 52.2033 108.902 52.2334 109.23C52.2635 109.559 52.2845 109.881 52.2951 110.195C52.3056 110.51 52.3071 110.812 52.3026 111.111C52.2981 111.409 52.289 111.687 52.274 111.958C52.2424 112.504 52.1853 113.005 52.1236 113.45C52.0906 113.672 52.053 113.882 52.0184 114.073C51.9838 114.264 51.9493 114.443 51.9147 114.597C51.7749 115.233 51.6456 115.594 51.6456 115.594C51.6456 115.594 51.5418 115.532 51.3539 115.413C51.166 115.293 50.8923 115.118 50.5646 114.879C50.2368 114.639 49.843 114.351 49.4085 114.015C49.3002 113.93 49.1874 113.843 49.0747 113.75L48.7349 113.461C48.5034 113.262 48.2643 113.051 48.0193 112.831C47.5231 112.393 47.0315 111.889 46.5309 111.35C46.4061 111.217 46.2813 111.08 46.1565 110.942C46.0317 110.804 45.9145 110.658 45.7927 110.514C45.5536 110.222 45.3161 109.923 45.0831 109.615C44.9688 109.461 44.85 109.308 44.7418 109.147C44.6335 108.985 44.5238 108.825 44.4185 108.662C44.206 108.333 44.0056 108 43.8171 107.662C43.7179 107.493 43.6307 107.318 43.5435 107.144C43.4563 106.97 43.3721 106.793 43.2909 106.615C43.1301 106.261 42.9797 105.903 42.8504 105.539C42.7111 105.128 42.5848 104.722 42.4716 104.32C42.4144 104.119 42.3618 103.919 42.3122 103.722C42.2626 103.524 42.2235 103.322 42.1844 103.125C42.1078 102.729 42.0446 102.339 41.998 101.955C41.9755 101.763 41.9544 101.574 41.9409 101.384C41.9273 101.194 41.9213 101.005 41.9168 100.818C41.9108 100.464 41.9279 100.111 41.9679 99.759C42.0055 99.4148 42.0536 99.0792 42.1093 98.7375C42.2376 98.0403 42.2819 97.3345 42.2415 96.6302C42.2115 96.1762 42.1544 95.7469 42.0792 95.3496C42.0431 95.151 42.001 94.961 41.9574 94.7796C41.9138 94.5982 41.8747 94.4231 41.8311 94.259C41.702 93.7806 41.5435 93.3078 41.356 92.8426C41.323 92.7637 41.3936 92.7192 41.4673 92.7748L41.7018 92.945C41.8642 93.061 42.0296 93.1745 42.1904 93.293C42.2807 93.367 42.3859 93.4484 42.4911 93.5298Z" fill="url(#paint5_linear_15_68301)"/>
<path d="M21.2258 104.998C21.3692 105.274 21.522 105.549 21.6844 105.825C21.937 106.237 22.2061 106.648 22.4842 107.058C22.6721 107.334 22.8631 107.609 23.0631 107.88C23.263 108.152 23.475 108.418 23.687 108.686C23.9426 109.006 24.2047 109.324 24.4733 109.639C24.7469 109.952 25.0296 110.256 25.3152 110.562C25.4786 110.735 25.643 110.906 25.8083 111.077C25.9752 111.246 26.1406 111.415 26.3165 111.579C26.6623 111.907 27.0156 112.23 27.3689 112.545C27.5673 112.719 27.7658 112.89 27.9703 113.059C28.1747 113.228 28.3822 113.389 28.5897 113.553C29.0047 113.875 29.4256 114.187 29.8481 114.487C30.3186 114.811 30.7982 115.117 31.2763 115.408C31.5154 115.554 31.7559 115.696 31.995 115.833C32.234 115.97 32.4821 116.098 32.7256 116.225C33.0098 116.372 33.2955 116.514 33.5796 116.648C33.8367 116.772 34.0923 116.888 34.3463 116.999C34.6004 117.11 34.8605 117.211 35.1146 117.308C35.6238 117.503 36.1249 117.678 36.6181 117.833C37.1082 117.989 37.6058 118.115 38.0854 118.23C38.565 118.345 39.0371 118.437 39.4956 118.517C39.9542 118.598 40.3977 118.658 40.8487 118.706C41.2997 118.754 41.7117 118.786 42.1207 118.81C42.5296 118.833 42.925 118.844 43.3053 118.846C43.6857 118.847 44.0571 118.833 44.4044 118.817C45.0339 118.787 45.6612 118.73 46.2837 118.647C46.5603 118.61 46.8144 118.572 47.0519 118.524C47.2894 118.476 47.5029 118.438 47.6999 118.4C48.1081 118.317 48.5098 118.214 48.9026 118.091C48.9026 118.091 48.8109 118.01 48.638 117.866C48.4651 117.722 48.205 117.517 47.8863 117.249C47.5676 116.981 47.1677 116.674 46.7076 116.329L46.3513 116.062C46.2295 115.971 46.1048 115.877 45.9785 115.78C45.7214 115.589 45.4493 115.39 45.1636 115.186C44.5863 114.783 43.9774 114.341 43.3084 113.902L42.2785 113.232C41.9267 113.006 41.5639 112.781 41.19 112.557C41.0036 112.445 40.8096 112.336 40.6217 112.223C40.4338 112.109 40.2413 111.998 40.0459 111.887C39.6565 111.665 39.2566 111.447 38.8431 111.236L38.2282 110.916C38.0228 110.811 37.8143 110.708 37.6028 110.607C37.1803 110.402 36.7458 110.208 36.3068 110.021C35.8217 109.807 35.3356 109.601 34.8485 109.404C34.6064 109.306 34.3629 109.21 34.1193 109.118C33.8758 109.025 33.6398 108.93 33.4007 108.839C32.9236 108.656 32.4475 108.485 31.9724 108.324C31.7349 108.243 31.4958 108.166 31.2628 108.09C31.0298 108.013 30.7967 107.939 30.5652 107.868C30.1142 107.73 29.6632 107.621 29.2241 107.52C28.7851 107.419 28.3356 107.332 27.9011 107.231C26.9676 107.038 26.0631 106.76 25.204 106.403C24.6682 106.165 24.1473 105.905 23.6434 105.624C23.4028 105.49 23.1733 105.357 22.9548 105.225C22.7383 105.092 22.5368 104.959 22.3534 104.83C21.7858 104.453 21.2475 104.047 20.7417 103.615C20.656 103.541 20.5779 103.573 20.6185 103.668C20.6606 103.769 20.7041 103.869 20.7462 103.969C20.8349 104.175 20.9282 104.379 21.0244 104.586C21.0875 104.724 21.1552 104.861 21.2258 104.998Z" fill="url(#paint6_linear_15_68301)"/>
<path d="M30.3729 72.3267C30.5233 72.5352 30.6586 72.7499 30.7924 72.9695C30.9969 73.2989 31.2013 73.632 31.3938 73.9713C31.5246 74.1995 31.6433 74.4303 31.7696 74.6597C31.8959 74.8892 32.0177 75.1224 32.135 75.3556C32.4116 75.9194 32.6897 76.4844 32.9348 77.0581C33.0701 77.3851 33.2114 77.7096 33.3392 78.0365C33.467 78.3634 33.5858 78.6941 33.7016 79.0235C33.8324 79.385 33.9496 79.7489 34.0564 80.1129C34.1631 80.4768 34.2668 80.8383 34.357 81.2011C34.5488 81.9804 34.6918 82.7674 34.7855 83.5588C34.8126 83.7845 34.8397 84.0091 34.8577 84.2324C34.8923 84.6358 34.9028 85.0356 34.9043 85.4266C34.9058 85.8177 34.8968 86.1977 34.8682 86.574C34.8547 86.7616 34.8367 86.9441 34.8156 87.1317C34.7946 87.3192 34.7765 87.5018 34.751 87.6758C34.7029 88.0348 34.6397 88.3852 34.5675 88.7282C34.4954 89.0711 34.4172 89.403 34.333 89.7263C34.2488 90.0495 34.1526 90.3629 34.0534 90.6664C33.8489 91.2758 33.6384 91.8372 33.4144 92.3529C33.1904 92.8686 32.9634 93.3399 32.7409 93.7458C32.5183 94.1517 32.3199 94.507 32.1395 94.7945C31.7802 95.3694 31.5276 95.6865 31.5276 95.6865C31.5276 95.6865 31.2269 95.3472 30.7458 94.7427C30.1118 93.9143 29.5395 93.0553 29.0319 92.1703C28.7132 91.6324 28.4155 91.034 28.1223 90.4048C27.9719 90.0902 27.8396 89.762 27.7088 89.4277C27.578 89.0933 27.4548 88.7491 27.3375 88.4C26.8598 86.9519 26.6156 85.4587 26.6113 83.9585C26.6113 83.7446 26.6159 83.5337 26.6249 83.3256C26.6249 83.2207 26.6324 83.1171 26.6384 83.0122L26.661 82.7013C26.696 82.29 26.7416 81.8846 26.7978 81.4848C26.8519 81.0888 26.9361 80.6965 27.0233 80.3165C27.1105 79.9365 27.2142 79.5651 27.324 79.2061C27.5704 78.5375 27.8718 77.8833 28.226 77.2481C28.5882 76.6067 28.8713 75.9371 29.071 75.2495C29.1973 74.8041 29.2874 74.3772 29.3506 73.9775C29.3822 73.7776 29.4047 73.5851 29.4273 73.3988C29.4498 73.2125 29.4694 73.0349 29.4814 72.8671C29.5085 72.5303 29.516 72.2317 29.5145 71.9825C29.513 71.7333 29.5145 71.5297 29.5024 71.3878C29.5024 71.3052 29.5791 71.2793 29.6333 71.3484L29.8016 71.568C29.9144 71.7172 30.0377 71.8653 30.1519 72.017C30.2256 72.1207 30.3008 72.2231 30.3729 72.3267Z" fill="url(#paint7_linear_15_68301)"/>
<path d="M6.05478 78.4817C6.09838 78.7766 6.15251 79.0739 6.21415 79.3749C6.31037 79.8277 6.43065 80.2805 6.55694 80.732C6.64414 81.038 6.72981 81.3489 6.83355 81.6487C6.93729 81.9485 7.04255 82.2582 7.1538 82.5617C7.4154 83.2933 7.73264 84.015 8.06791 84.7294C8.25584 85.1341 8.46479 85.5326 8.68128 85.9274C8.89778 86.3222 9.11728 86.7132 9.35332 87.0957C9.61792 87.5168 9.89108 87.9301 10.1727 88.3356C10.4509 88.7415 10.756 89.1326 11.0612 89.5151C11.7102 90.3295 12.4249 91.1072 13.2006 91.8432C13.4216 92.0504 13.6517 92.2503 13.8727 92.4452C14.2816 92.7969 14.6905 93.1275 15.1085 93.4322C15.5264 93.737 15.9504 94.0195 16.3699 94.2811C16.5804 94.4135 16.7898 94.5397 16.9983 94.6598C17.2068 94.7799 17.4183 94.8946 17.6328 95.004C18.0537 95.2245 18.4697 95.4264 18.8806 95.6098C19.2896 95.7949 19.7015 95.9577 20.1044 96.1033C20.5073 96.2489 20.8997 96.3834 21.2846 96.5018C21.9969 96.7216 22.7255 96.9038 23.4661 97.0471C24.1457 97.1791 24.7681 97.2704 25.3213 97.3309C25.8746 97.3913 26.3662 97.4172 26.7662 97.4308C27.1864 97.449 27.6077 97.4461 28.0275 97.4222C28.0275 97.4222 27.796 97.0286 27.3495 96.3797C26.903 95.7307 26.2715 94.814 25.4732 93.7604C25.0627 93.2373 24.6328 92.671 24.1457 92.0936C23.9006 91.8062 23.6556 91.5088 23.394 91.2103C23.1324 90.9117 22.8647 90.6119 22.5821 90.3109C21.434 89.0429 20.1689 87.8492 18.7979 86.7404C18.5975 86.5825 18.397 86.4266 18.1966 86.2728L17.6027 85.8163C17.2068 85.5145 16.8094 85.2221 16.4105 84.9391C16.0076 84.6566 15.6197 84.379 15.2197 84.1162C14.8198 83.8534 14.4229 83.598 14.017 83.3575C13.265 82.9181 12.4862 82.5104 11.6836 82.1361C10.8559 81.737 10.084 81.2645 9.38191 80.7271C8.05048 79.645 6.92619 78.4038 6.04726 77.0456C5.99013 76.9543 5.90444 76.9679 5.91046 77.0678C5.91046 77.1727 5.92397 77.2788 5.92998 77.3837C5.94201 77.6008 5.96308 77.8167 5.98563 78.0351C6.0157 78.1868 6.03373 78.3324 6.05478 78.4817Z" fill="url(#paint8_linear_15_68301)"/>
<path d="M25.7289 49.1197C25.8026 49.3541 25.8657 49.591 25.9228 49.8315C26.01 50.1955 26.0988 50.5619 26.1694 50.9308C26.2205 51.1775 26.2596 51.4243 26.3062 51.6784C26.3528 51.9326 26.3934 52.1794 26.4295 52.431C26.4521 52.5816 26.4716 52.7333 26.4911 52.8838L26.5167 53.1121L26.5468 53.3391C26.5849 53.6426 26.6159 53.9465 26.64 54.2508L26.6761 54.7678C26.6896 54.9405 26.7001 55.1132 26.7077 55.2847C26.7257 55.6289 26.7302 55.9744 26.7317 56.3173C26.7467 57.0736 26.7016 57.8274 26.6415 58.5652C26.6234 58.7688 26.6009 58.9699 26.5753 59.171C26.5498 59.3721 26.5212 59.5707 26.4942 59.7681C26.437 60.1642 26.3634 60.554 26.2777 60.939C26.225 61.1647 26.1784 61.3856 26.1273 61.6064C26.0266 62.0037 25.9093 62.3923 25.777 62.7698C25.6447 63.1474 25.5139 63.5101 25.3621 63.8691C25.2869 64.048 25.2117 64.2232 25.126 64.3971C25.0403 64.5711 24.9667 64.7401 24.8825 64.9067C24.7171 65.2423 24.5412 65.5667 24.3578 65.8813C24.2661 66.038 24.1714 66.1935 24.0782 66.3452C23.9849 66.497 23.8917 66.645 23.797 66.7918C23.6076 67.083 23.4121 67.3643 23.2151 67.6345C23.0182 67.9047 22.8152 68.165 22.6138 68.4118C22.4123 68.6585 22.2229 68.8929 22.0289 69.115C21.6426 69.5616 21.2637 69.9589 20.9149 70.3043C20.5661 70.6498 20.2534 70.9409 19.9827 71.1766C19.4445 71.6491 19.0957 71.8959 19.0957 71.8959C19.0957 71.8959 18.9138 71.5011 18.6613 70.8102C18.541 70.4647 18.4057 70.044 18.2643 69.5628C18.2313 69.4395 18.1952 69.3161 18.1591 69.1927C18.123 69.0693 18.096 68.9324 18.0629 68.7979C17.9987 68.5273 17.9361 68.244 17.875 67.9479C17.8449 67.8011 17.8148 67.6505 17.7862 67.4963C17.7577 67.3421 17.7366 67.1867 17.7126 67.0275C17.6655 66.7092 17.6244 66.3802 17.5893 66.0405C17.5502 65.7049 17.5337 65.3582 17.5186 65.0066C17.5036 64.655 17.4961 64.2972 17.5021 63.9357C17.5081 63.5742 17.5337 63.2041 17.5667 62.8352C17.5818 62.6502 17.6013 62.4651 17.6224 62.28C17.6434 62.095 17.6765 61.9099 17.7081 61.7212C17.7712 61.3477 17.8479 60.9751 17.9381 60.6034C18.0298 60.2333 18.1471 59.8631 18.2734 59.493C18.5491 58.6964 18.8814 57.9137 19.2686 57.1489C19.3152 57.0564 19.3619 56.9651 19.41 56.8738L19.5603 56.6023C19.6605 56.4239 19.7637 56.2474 19.87 56.0731C20.082 55.7264 20.3 55.392 20.53 55.07C20.9847 54.4801 21.487 53.9159 22.0335 53.381C22.5934 52.8428 23.0865 52.2601 23.5053 51.6414C23.7714 51.2405 23.9985 50.8481 24.1909 50.4768C24.2871 50.2917 24.3713 50.1067 24.4555 49.9364C24.5397 49.7661 24.6058 49.5959 24.681 49.4429C24.8178 49.1246 24.9231 48.8384 25.0043 48.5978C25.0854 48.3572 25.1546 48.1598 25.1862 48.0216C25.2102 47.9402 25.2959 47.934 25.326 48.013L25.4162 48.2597C25.4763 48.43 25.5455 48.599 25.6071 48.7705C25.6537 48.8828 25.6928 48.9963 25.7289 49.1197Z" fill="url(#paint9_linear_15_68301)"/>
<path d="M0.292165 49.6665C0.236538 49.9601 0.191445 50.2587 0.152356 50.5622C0.095225 51.0186 0.0636498 51.4813 0.0365879 51.9464C0.0200501 52.2598 0.00201031 52.5744 0.000506868 52.8902C-0.000996571 53.2061 0.000515677 53.5219 0.00953631 53.8378C0.00953631 54.029 0.0200428 54.219 0.0290634 54.4102L0.0426076 54.6952L0.0636396 54.9814C0.0957129 55.3623 0.133802 55.7427 0.177902 56.1227C0.203461 56.3386 0.227525 56.5545 0.262104 56.7679C0.296683 56.9813 0.332763 57.1972 0.371852 57.4107C0.451534 57.8363 0.535727 58.2607 0.634954 58.6814C0.855375 59.5937 1.13696 60.4953 1.4784 61.3821C1.57161 61.6202 1.66632 61.8559 1.76554 62.0891C1.81516 62.205 1.86327 62.321 1.91589 62.4357L2.07827 62.7762C2.29627 63.2278 2.52931 63.667 2.76686 64.0902C2.90668 64.3369 3.06754 64.5837 3.21789 64.8181C3.49452 65.2466 3.78067 65.6542 4.07635 66.0407C4.37202 66.4273 4.68273 66.7925 5.00847 67.1363C5.16683 67.3082 5.32619 67.4756 5.48655 67.6384C5.64592 67.8013 5.81431 67.958 5.97969 68.111C6.31044 68.4153 6.64323 68.7032 6.97799 68.9746C7.14638 69.1091 7.31173 69.2386 7.48012 69.3632C7.6485 69.4878 7.81841 69.61 7.98679 69.7247C8.32507 69.9567 8.65882 70.1713 8.98807 70.3712C9.31732 70.5711 9.64056 70.7549 9.9623 70.9227C10.284 71.0905 10.5983 71.2447 10.9019 71.3841C11.4503 71.637 12.0138 71.8672 12.5903 72.0738C13.103 72.2564 13.5645 72.3933 13.9434 72.4969C14.3417 72.6094 14.7479 72.7021 15.1597 72.7745C15.1597 72.7745 15.068 72.344 14.859 71.6197C14.7628 71.2496 14.638 70.8178 14.4801 70.3243L14.3553 69.9431L14.2276 69.5397C14.1374 69.2645 14.0396 68.9771 13.9269 68.676L13.5901 67.7532C13.4728 67.4365 13.3455 67.1112 13.2082 66.7773C13.0669 66.4454 12.9346 66.1049 12.7827 65.7607C12.6309 65.4165 12.4715 65.0661 12.3032 64.7132C12.1348 64.3604 11.9649 64.0038 11.7785 63.646C11.6852 63.4684 11.589 63.2899 11.4898 63.1106C11.3921 62.9305 11.2958 62.7503 11.1891 62.5714C10.9886 62.212 10.7732 61.8546 10.5426 61.4993C10.3171 61.1428 10.0916 60.7874 9.8375 60.4383C9.27672 59.6561 8.72499 58.8986 8.14015 58.1768C7.9898 57.9979 7.84846 57.8191 7.70413 57.6426C7.5598 57.4662 7.41247 57.2935 7.26513 57.122C6.96445 56.7802 6.66376 56.4484 6.36307 56.1276C5.78375 55.5387 5.16803 54.9745 4.51835 54.4373C3.85459 53.87 3.26827 53.2449 2.76983 52.5732C2.45561 52.1241 2.18199 51.6738 1.94444 51.2407C1.82718 51.0248 1.71593 50.8126 1.61971 50.6066C1.52349 50.4005 1.43479 50.2019 1.35511 50.0119C1.20476 49.6319 1.06945 49.2865 0.971723 48.9941C0.873999 48.7017 0.810874 48.4623 0.765771 48.2933C0.740212 48.1934 0.653023 48.1872 0.625961 48.2847C0.597396 48.3871 0.570325 48.4907 0.54176 48.5931C0.481622 48.8053 0.432 49.0175 0.382386 49.2322C0.349311 49.3761 0.319227 49.5209 0.292165 49.6665Z" fill="url(#paint10_linear_15_68301)"/>
<path d="M28.8408 25.7251C28.8408 25.8485 28.8303 25.9657 28.8213 26.0866C28.8122 26.2075 28.8077 26.3333 28.7972 26.4567C28.7672 26.8268 28.722 27.197 28.6709 27.5671C28.6393 27.8138 28.6048 28.0606 28.5642 28.3172C28.5236 28.5738 28.474 28.8107 28.4334 29.0661C28.3267 29.6682 28.1868 30.2665 28.044 30.8649C27.8681 31.5398 27.6862 32.2134 27.4577 32.8734C27.3404 33.2403 27.2116 33.6022 27.0713 33.9591C27.0006 34.1368 26.93 34.3145 26.8608 34.4921C26.7916 34.6698 26.7104 34.845 26.6368 35.0189C26.5631 35.1929 26.4639 35.3989 26.3752 35.5864C26.2865 35.774 26.1978 35.9566 26.1046 36.1453C25.9181 36.5155 25.7137 36.8732 25.5137 37.2249C25.3949 37.4309 25.2716 37.6345 25.1439 37.8331C24.2927 39.1731 23.2522 40.4262 22.0438 41.5664C21.7672 41.8292 21.486 42.0809 21.2049 42.3202C20.9237 42.5596 20.6486 42.7891 20.3704 43.0062C19.8172 43.4405 19.2639 43.8291 18.7497 44.1746C17.91 44.733 17.0266 45.2457 16.1052 45.7093C15.4317 46.0462 15.0152 46.2028 15.0152 46.2028C15.0152 46.2028 15.0032 46.098 14.9896 45.903C14.9761 45.7081 14.955 45.4219 14.9535 45.0616C14.952 44.7014 14.9536 44.2671 14.9761 43.7724C14.9987 43.2776 15.0543 42.7249 15.1265 42.129C15.3034 40.7925 15.6233 39.4714 16.0826 38.181C16.1458 38.0071 16.2104 37.8331 16.2781 37.6579C16.3457 37.4827 16.4284 37.31 16.4991 37.1348C16.6524 36.7852 16.8178 36.4377 16.9952 36.0923C17.1801 35.7468 17.3771 35.4039 17.5876 35.067C17.6928 34.898 17.7996 34.7302 17.9138 34.5649C18.0281 34.3996 18.1469 34.2355 18.2701 34.0714C18.3934 33.9073 18.5438 33.7124 18.6821 33.536L18.8911 33.2744C18.9617 33.188 19.0414 33.1017 19.1076 33.0178C19.3972 32.6773 19.6919 32.3483 19.9916 32.0308C20.2923 31.7162 20.6095 31.4139 20.9237 31.1265C21.2379 30.839 21.5567 30.5651 21.8904 30.306C22.5187 29.8351 23.1886 29.4029 23.8945 29.013C24.2343 28.8132 24.5726 28.6108 24.9033 28.39C25.2475 28.1646 25.5739 27.9214 25.8806 27.6621C26.073 27.498 26.2534 27.3339 26.4248 27.1686C26.5962 27.0033 26.7631 26.8466 26.9179 26.6887C27.2276 26.3741 27.4937 26.0718 27.7283 25.7954C28.0739 25.3922 28.3917 24.9733 28.6799 24.5407C28.7296 24.4667 28.8152 24.4803 28.8167 24.5617C28.8167 24.648 28.8168 24.7344 28.8243 24.8208C28.8243 24.9984 28.8393 25.1761 28.8423 25.355C28.8453 25.4858 28.8438 25.6054 28.8408 25.7251Z" fill="url(#paint11_linear_15_68301)"/>
<path d="M4.15484 20.6487C4.07967 20.7832 4.00446 20.9202 3.9353 21.0596C3.86615 21.199 3.79701 21.3396 3.72935 21.4815C3.52889 21.9109 3.33895 22.3472 3.15954 22.7905C3.04227 23.0891 2.93102 23.3901 2.82277 23.6936C2.71453 23.9971 2.60778 24.3006 2.52209 24.6091C2.29657 25.3493 2.09212 26.0896 1.93877 26.8508C1.75234 27.7033 1.63806 28.5645 1.54335 29.417C1.50275 29.8883 1.47569 30.3583 1.46215 30.8235L1.45312 31.1714C1.45312 31.2873 1.45312 31.4033 1.45312 31.5181C1.45312 31.7484 1.45916 31.9778 1.47118 32.2065C1.48321 32.4532 1.49675 32.7 1.51629 32.9467C1.53584 33.1935 1.56591 33.4402 1.59598 33.6783C1.65762 34.162 1.72976 34.6345 1.83199 35.0959C1.89113 35.3657 1.95428 35.6318 2.02143 35.8941C2.46136 37.5922 3.22714 39.2221 4.29013 40.723C4.52667 41.052 4.76773 41.3662 5.0133 41.6656C5.26136 41.963 5.51695 42.2443 5.76501 42.5083C6.23014 42.9991 6.73227 43.4655 7.26845 43.9049C8.05965 44.552 8.92512 45.135 9.85286 45.6457C10.1995 45.8414 10.56 46.0202 10.9323 46.1811C10.9323 46.1811 10.9458 46.0726 10.9639 45.8702C10.9819 45.6679 10.9985 45.3767 11.024 45.0066C11.0496 44.6365 11.0691 44.1862 11.0781 43.6754C11.0872 43.1646 11.1022 42.5909 11.0887 41.9716C11.0887 40.7378 10.9985 39.3042 10.8226 37.7978C10.8 37.6091 10.7745 37.4191 10.7459 37.2291C10.7173 37.0391 10.6888 36.8466 10.6617 36.6541C10.6016 36.2692 10.5299 35.881 10.4467 35.4895C10.37 35.0996 10.2813 34.7073 10.1791 34.315C10.1295 34.1176 10.0724 33.9214 10.0167 33.7252C9.96112 33.5291 9.90547 33.3329 9.84383 33.1367C9.77467 32.9184 9.70252 32.7012 9.63035 32.4841L9.40935 31.8413C9.26301 31.4161 9.10815 30.9974 8.94477 30.5853C8.7824 30.1733 8.62152 29.7711 8.44562 29.3763C8.26972 28.9815 8.08783 28.5953 7.90441 28.219C7.54358 27.4874 7.09253 26.8459 6.67908 26.1833C6.47161 25.8515 6.26714 25.5134 6.0777 25.1544C5.88323 24.7801 5.72293 24.3946 5.59812 24.0008C5.51843 23.7541 5.44779 23.4987 5.38615 23.2532C5.3245 23.0077 5.2794 22.7683 5.2358 22.5339C5.15462 22.0651 5.09747 21.6197 5.0689 21.2175C5.02735 20.6225 5.02735 20.026 5.0689 19.431C5.07792 19.3286 4.99676 19.3077 4.93812 19.3928C4.87799 19.4853 4.81635 19.5778 4.75772 19.6716C4.63594 19.8641 4.51414 20.0565 4.39537 20.2527C4.30666 20.381 4.23001 20.5143 4.15484 20.6487Z" fill="url(#paint12_linear_15_68301)"/>
<path d="M127.909 153.013C127.759 152.836 127.609 152.656 127.458 152.482L126.989 151.96L126.501 151.45C126.337 151.279 126.165 151.115 125.998 150.948C125.317 150.284 124.599 149.646 123.846 149.034C122.331 147.806 120.702 146.678 118.973 145.658C118.109 145.144 117.223 144.65 116.316 144.178C115.409 143.706 114.486 143.258 113.545 142.836C111.668 141.981 109.731 141.203 107.756 140.492C106.765 140.135 105.777 139.801 104.771 139.489C103.766 139.176 102.748 138.888 101.722 138.614C99.6688 138.065 97.5805 137.58 95.4787 137.105L92.3214 136.396C91.7937 136.272 91.269 136.149 90.7338 136.025L89.94 135.838C89.6754 135.776 89.4138 135.705 89.1507 135.638L87.5736 135.232L86.0085 134.798L85.2252 134.579L84.4494 134.347C83.9322 134.191 83.4136 134.039 82.8994 133.88C74.66 131.306 66.8515 127.885 59.6607 123.699L58.3211 122.909C57.8701 122.643 57.4417 122.368 57.0012 122.098L56.3426 121.69L55.6946 121.272L54.4002 120.435L53.1283 119.571C52.9178 119.427 52.7028 119.286 52.4953 119.138L51.8714 118.696L51.2475 118.254C51.04 118.106 50.8295 117.961 50.6266 117.808L49.4043 116.902C47.7881 115.68 46.2004 114.435 44.682 113.13L44.1077 112.645C44.0114 112.564 43.9182 112.482 43.825 112.398L43.5439 112.151L42.4238 111.164C42.0554 110.83 41.6931 110.491 41.3278 110.155L40.7805 109.649L40.2468 109.135L39.1809 108.104L38.142 107.056C37.9691 106.881 37.7932 106.708 37.6248 106.531L37.1197 105.997C36.7829 105.642 36.4416 105.289 36.1108 104.929C35.4599 104.205 34.7923 103.489 34.1654 102.75L33.6888 102.2C33.531 102.016 33.3686 101.83 33.2167 101.647L32.2936 100.529C31.9809 100.159 31.6923 99.7779 31.3916 99.4004L30.9405 98.8341C30.7902 98.6466 30.6504 98.4529 30.503 98.2629C30.2144 97.8792 29.9227 97.4992 29.6371 97.1142L28.7951 95.9545L28.5862 95.6646L28.3817 95.371L27.9758 94.7849L27.5683 94.1977L27.1744 93.6055L26.7805 93.0133C26.6497 92.8159 26.5159 92.6185 26.3911 92.4186L25.6319 91.2219C21.6449 84.8081 18.5562 78.0443 16.4248 71.06C14.2904 64.0862 13.103 56.94 12.8842 49.7519C12.8241 47.9581 12.8376 46.163 12.9023 44.3691C12.9669 42.5752 13.0902 40.7912 13.2766 38.9974C13.4631 37.2035 13.7096 35.4281 14.0148 33.6528C14.32 31.8774 14.6778 30.1082 15.1078 28.3477C14.7019 30.1094 14.3666 31.8811 14.0855 33.6528C13.8043 35.4244 13.5833 37.2134 13.4194 38.9998C13.2556 40.7863 13.1624 42.5777 13.1188 44.3666C13.0752 46.1556 13.0887 47.9445 13.1729 49.7371C13.4852 56.8969 14.7624 64.0063 16.9811 70.9354C19.1883 77.8614 22.3451 84.5599 26.3911 90.9023L27.1609 92.083C27.2872 92.2804 27.4225 92.4741 27.5548 92.6691L27.9517 93.2538L28.3516 93.8374L28.7621 94.416L29.174 94.9934L29.3799 95.2834L29.592 95.5684L30.4414 96.712C30.73 97.0896 31.0247 97.4646 31.3164 97.8422C31.4667 98.0297 31.605 98.2197 31.7569 98.4047L32.2079 98.9624C32.5086 99.3325 32.8093 99.7026 33.119 100.073L34.0496 101.172C34.2 101.357 34.3654 101.536 34.5247 101.716L35.0043 102.258C35.6343 102.984 36.3048 103.686 36.9588 104.398C37.2911 104.751 37.6338 105.097 37.9706 105.447L38.4773 105.97C38.6471 106.144 38.8246 106.314 38.9975 106.486L40.0394 107.514L41.1083 108.524L41.642 109.029L42.1908 109.522C42.5561 109.851 42.9199 110.183 43.2883 110.509L44.4099 111.479L44.6895 111.726C44.7827 111.807 44.8759 111.887 44.9736 111.966L45.5464 112.441C47.0664 113.714 48.6511 114.934 50.2627 116.126L51.4835 117.011C51.685 117.16 51.8955 117.301 52.1014 117.445L52.7238 117.877L53.3463 118.308C53.5523 118.452 53.7672 118.589 53.9777 118.729L55.2436 119.568L56.5321 120.384L57.1786 120.791L57.8325 121.186C58.2715 121.449 58.7046 121.716 59.1466 121.975L60.4786 122.743C67.6136 126.801 75.3468 130.1 83.4933 132.562C84.0029 132.715 84.5141 132.86 85.0253 133.009L85.7905 133.23L86.5618 133.438L88.1058 133.85L89.6604 134.235C89.9205 134.298 90.1775 134.367 90.4391 134.425L91.2224 134.603C91.7441 134.726 92.2628 134.841 92.789 134.956L95.9583 135.637C98.0751 136.094 100.198 136.566 102.306 137.109C103.358 137.38 104.411 137.666 105.454 137.981C106.497 138.295 107.533 138.634 108.547 138.988C110.584 139.697 112.586 140.478 114.541 141.344C115.518 141.778 116.482 142.233 117.432 142.71C118.382 143.187 119.312 143.691 120.222 144.222C122.057 145.28 123.789 146.453 125.402 147.731C126.203 148.373 126.976 149.045 127.718 149.747C127.9 149.924 128.085 150.099 128.263 150.279L128.792 150.822L129.303 151.376C129.473 151.562 129.632 151.753 129.798 151.942C129.841 151.991 129.882 152.041 129.921 152.091C129.96 152.142 129.992 152.194 130.025 152.244C130.088 152.343 130.144 152.446 130.193 152.55C130.239 152.647 130.277 152.746 130.307 152.848C130.333 152.94 130.349 153.035 130.357 153.13C130.387 153.492 130.268 153.78 129.998 153.917C129.727 154.054 129.362 154.02 128.993 153.858C128.896 153.816 128.804 153.768 128.717 153.714C128.62 153.657 128.528 153.595 128.44 153.53C128.347 153.459 128.258 153.383 128.175 153.304C128.091 153.223 128.01 153.135 127.929 153.044L127.909 153.013Z" fill="url(#paint13_linear_15_68301)"/>
<path d="M212.367 0C212.507 0.0962323 212.68 0.470058 212.862 0.986998C212.907 1.11037 212.954 1.25225 212.999 1.3966C213.044 1.54095 213.087 1.6927 213.131 1.84815C213.218 2.16029 213.304 2.4897 213.387 2.82035C213.469 3.15099 213.537 3.4878 213.608 3.80734C213.678 4.12689 213.741 4.42422 213.791 4.70305C213.893 5.2496 213.97 5.66907 214.009 5.83069C214.549 8.15383 215.186 10.7163 215.963 13.264C216.741 15.8117 217.653 18.3545 218.838 20.6727C219.707 22.3915 220.819 24.0202 222.153 25.525C222.422 25.831 222.688 26.1135 222.947 26.3726C223.205 26.6317 223.457 26.8661 223.688 27.0807C224.153 27.5076 224.569 27.8444 224.891 28.0949C225.126 27.5676 225.325 27.0296 225.485 26.4836C225.645 25.9048 225.769 25.3196 225.858 24.7305C225.898 24.4294 225.933 24.1222 225.958 23.8101C225.984 23.4979 226.006 23.1821 226.011 22.8638C226.02 22.226 226.011 21.5696 225.948 20.9058C225.919 20.574 225.885 20.2384 225.84 19.9016C225.794 19.5648 225.737 19.2267 225.676 18.8862C225.644 18.7159 225.613 18.5445 225.578 18.3742C225.543 18.2039 225.501 18.0324 225.462 17.861C225.381 17.5192 225.295 17.175 225.201 16.8308C225.106 16.4866 224.996 16.1436 224.886 15.7981C224.829 15.6266 224.775 15.4539 224.713 15.2824C224.652 15.1109 224.589 14.9394 224.526 14.768C224.396 14.4262 224.265 14.082 224.123 13.7415C223.98 13.401 223.822 13.0629 223.672 12.7249C223.045 11.3784 222.309 10.0681 221.468 8.80278C221.057 8.17357 220.608 7.56904 220.158 6.97191C219.928 6.67704 219.692 6.38711 219.456 6.10212L219.098 5.67771C218.978 5.53706 218.853 5.40011 218.73 5.26316C216.769 3.06586 214.564 1.25102 212.367 0Z" fill="url(#paint14_linear_15_68301)"/>
<path d="M163.986 142.134C163.686 142.299 163.355 142.449 163.024 142.597C162.527 142.819 162.017 143.035 161.5 143.245L161.237 143.35L160.972 143.448L160.438 143.643C160.081 143.772 159.72 143.895 159.356 144.013C159.138 144.085 158.92 144.16 158.699 144.227L158.031 144.423C157.584 144.551 157.133 144.675 156.678 144.793L156.295 144.891L155.908 144.981C155.65 145.039 155.391 145.095 155.133 145.15C154.615 145.258 154.098 145.361 153.58 145.451C153.007 145.542 152.434 145.625 151.866 145.697C151.582 145.733 151.296 145.765 151.016 145.795C150.737 145.825 150.498 145.836 150.24 145.853C149.172 145.922 148.099 145.934 147.029 145.889C146.736 145.876 146.445 145.859 146.156 145.837C144.309 145.693 142.496 145.342 140.766 144.794C139.373 144.352 138.028 143.815 136.743 143.19C136.182 142.922 135.668 142.654 135.223 142.412C134.778 142.17 134.391 141.944 134.076 141.753C133.438 141.383 133.094 141.126 133.094 141.126C133.094 141.126 133.207 141.076 133.417 140.989C133.627 140.903 133.937 140.782 134.331 140.64C135.411 140.258 136.524 139.942 137.661 139.697C138.357 139.542 139.121 139.405 139.928 139.288C140.736 139.171 141.593 139.081 142.484 139.027C144.344 138.907 146.214 138.951 148.062 139.157L149.665 139.347C150.2 139.416 150.729 139.49 151.251 139.571L152.024 139.694C152.279 139.734 152.533 139.775 152.784 139.817C153.285 139.908 153.778 140.006 154.261 140.112C155.199 140.312 156.033 140.582 156.899 140.84C157.114 140.903 157.334 140.964 157.555 141.025C157.776 141.087 158.006 141.138 158.231 141.187C158.714 141.293 159.206 141.372 159.702 141.423C159.861 141.439 160.019 141.452 160.175 141.464L160.41 141.481L160.641 141.492C160.942 141.505 161.243 141.511 161.543 141.513C162.127 141.513 162.675 141.498 163.173 141.468C163.905 141.416 164.634 141.331 165.355 141.214C165.478 141.194 165.518 141.257 165.419 141.316L165.1 141.502C164.882 141.625 164.664 141.756 164.44 141.881C164.292 141.973 164.14 142.054 163.986 142.134Z" fill="url(#paint15_linear_15_68301)"/>
<path d="M154.485 122.765C154.202 122.805 153.913 122.846 153.625 122.888C153.19 122.959 152.756 123.042 152.324 123.135L152.105 123.18L151.885 123.225L151.448 123.316C151.155 123.379 150.864 123.447 150.574 123.517L149.529 123.776C149.182 123.865 148.836 123.959 148.494 124.059L148.202 124.145L147.909 124.228C147.715 124.283 147.521 124.341 147.328 124.401C146.942 124.524 146.562 124.647 146.183 124.778C145.764 124.916 145.35 125.063 144.942 125.218C144.738 125.296 144.538 125.376 144.341 125.465C144.116 125.547 143.893 125.634 143.674 125.726C142.7 126.115 141.753 126.547 140.835 127.019C140.566 127.157 140.303 127.299 140.046 127.442C138.302 128.405 136.736 129.568 135.394 130.896C134.323 131.956 133.431 133.128 132.741 134.383C132.478 134.865 132.25 135.359 132.058 135.863C131.912 136.245 131.79 136.633 131.691 137.025C131.606 137.365 131.547 137.708 131.514 138.053C131.514 138.053 131.641 138.02 131.876 137.953C132.111 137.887 132.456 137.787 132.891 137.655C133.76 137.396 134.981 137.022 136.397 136.559C137.105 136.325 137.863 136.072 138.652 135.788C139.441 135.504 140.252 135.199 141.073 134.864C142.769 134.185 144.377 133.369 145.875 132.426C146.082 132.292 146.288 132.156 146.489 132.019C146.691 131.882 146.874 131.744 147.061 131.606C147.432 131.328 147.788 131.049 148.131 130.767C148.215 130.695 148.3 130.626 148.382 130.554L148.627 130.335C148.789 130.189 148.945 130.043 149.096 129.897C149.397 129.603 149.684 129.308 149.956 129.011C150.436 128.439 150.865 127.839 151.242 127.217L151.542 126.768C151.643 126.616 151.745 126.465 151.855 126.315C152.076 126.006 152.322 125.71 152.592 125.429C152.676 125.342 152.762 125.255 152.847 125.173L153.102 124.926C153.271 124.763 153.438 124.608 153.605 124.462C153.937 124.17 154.259 123.913 154.558 123.69C154.986 123.354 155.438 123.04 155.911 122.75C155.991 122.702 155.964 122.634 155.865 122.641L155.555 122.668C155.343 122.686 155.131 122.704 154.919 122.726C154.763 122.729 154.622 122.746 154.485 122.765Z" fill="url(#paint16_linear_15_68301)"/>
<path d="M194.911 126.961C194.674 127.189 194.425 127.413 194.168 127.638C193.974 127.807 193.777 127.976 193.578 128.143L193.277 128.389C193.172 128.47 193.068 128.551 192.964 128.636C192.4 129.069 191.822 129.5 191.222 129.909C190.858 130.156 190.489 130.396 190.115 130.629C189.929 130.752 189.741 130.863 189.551 130.979C189.362 131.095 189.172 131.21 188.977 131.318C188.538 131.565 188.094 131.808 187.645 132.046C187.419 132.163 187.194 132.281 186.968 132.393C186.743 132.505 186.51 132.612 186.278 132.719C185.77 132.953 185.26 133.177 184.748 133.39C184.231 133.597 183.71 133.789 183.193 133.971C182.909 134.069 182.626 134.166 182.344 134.257C182.061 134.348 181.774 134.429 181.49 134.504C180.923 134.664 180.359 134.807 179.805 134.934C179.48 135.007 179.152 135.069 178.829 135.128C178.245 135.233 177.674 135.318 177.119 135.385C176.565 135.451 176.011 135.486 175.481 135.508C174.95 135.53 174.437 135.543 173.935 135.531C173.433 135.52 172.946 135.492 172.477 135.454C172.008 135.416 171.557 135.365 171.124 135.306C170.691 135.246 170.268 135.166 169.868 135.085C169.128 134.936 168.4 134.751 167.687 134.53C166.646 134.202 165.645 133.794 164.696 133.313C164.358 133.142 164.095 132.99 163.925 132.884C163.755 132.778 163.662 132.717 163.662 132.717C163.662 132.717 163.778 132.664 163.997 132.572C164.217 132.479 164.534 132.336 164.94 132.168C165.143 132.084 165.369 131.993 165.614 131.897C165.859 131.801 166.126 131.702 166.406 131.588C166.968 131.366 167.609 131.127 168.303 130.884C168.998 130.641 169.745 130.371 170.546 130.119C170.943 129.988 171.351 129.856 171.772 129.73C171.981 129.666 172.194 129.607 172.409 129.542C172.624 129.476 172.844 129.418 173.06 129.358C174.882 128.834 176.749 128.422 178.645 128.124C179.19 128.042 179.731 127.967 180.269 127.9C180.807 127.832 181.334 127.768 181.848 127.708C182.109 127.681 182.371 127.655 182.631 127.632L183.402 127.565C183.912 127.522 184.417 127.49 184.913 127.468C185.887 127.431 186.777 127.474 187.695 127.499C188.146 127.511 188.615 127.516 189.094 127.499C189.592 127.477 190.086 127.427 190.575 127.349C190.888 127.299 191.196 127.242 191.494 127.18C191.644 127.149 191.794 127.119 191.936 127.085C192.077 127.052 192.22 127.015 192.358 126.979C192.912 126.835 193.426 126.678 193.884 126.525C194.114 126.449 194.335 126.373 194.531 126.301C194.726 126.228 194.913 126.151 195.079 126.083C195.412 125.946 195.681 125.828 195.863 125.743C195.973 125.692 196.036 125.743 195.962 125.823L195.73 126.08C195.571 126.256 195.412 126.433 195.248 126.608L195.081 126.783L194.911 126.961Z" fill="url(#paint17_linear_15_68301)"/>
<path d="M178.648 110.901C178.387 111.006 178.13 111.119 177.873 111.239C177.679 111.329 177.486 111.423 177.295 111.518L177.01 111.662L176.721 111.803C176.202 112.059 175.696 112.333 175.195 112.615C174.894 112.779 174.594 112.949 174.293 113.123C174.143 113.211 173.992 113.299 173.851 113.388C173.71 113.477 173.55 113.57 173.41 113.657C173.077 113.859 172.749 114.064 172.427 114.274C172.266 114.38 172.107 114.489 171.949 114.597C171.791 114.706 171.629 114.811 171.472 114.919C171.127 115.16 170.789 115.407 170.461 115.66C170.127 115.906 169.802 116.153 169.489 116.417C169.317 116.559 169.148 116.703 168.983 116.848C168.817 116.992 168.649 117.133 168.488 117.278C168.164 117.567 167.855 117.862 167.56 118.163C167.388 118.338 167.215 118.508 167.049 118.685C166.749 119 166.47 119.323 166.209 119.646C165.947 119.969 165.695 120.284 165.465 120.606C165.235 120.928 165.014 121.252 164.818 121.57C164.623 121.889 164.426 122.202 164.253 122.517C164.08 122.831 163.918 123.143 163.772 123.453C163.626 123.763 163.483 124.056 163.357 124.351C163.104 124.94 162.906 125.512 162.731 126.04C162.451 126.895 162.241 127.763 162.103 128.641C162.053 128.964 162.023 129.217 162.008 129.391C161.993 129.565 161.99 129.659 161.99 129.659C161.99 129.659 162.112 129.626 162.336 129.56C162.56 129.495 162.879 129.384 163.282 129.242C163.483 129.172 163.704 129.091 163.942 129.002C164.179 128.914 164.439 128.82 164.705 128.705C165.241 128.482 165.836 128.222 166.467 127.924C167.099 127.627 167.753 127.269 168.422 126.888C168.756 126.69 169.091 126.485 169.429 126.271C169.598 126.164 169.766 126.053 169.934 125.94C170.103 125.828 170.271 125.716 170.435 125.594C171.815 124.617 173.029 123.493 174.043 122.251C174.328 121.898 174.597 121.544 174.851 121.19C175.104 120.837 175.338 120.478 175.551 120.115C175.66 119.937 175.765 119.759 175.864 119.582C175.915 119.493 175.965 119.405 176.014 119.316C176.064 119.228 176.106 119.136 176.153 119.047C176.33 118.688 176.492 118.333 176.635 117.981C176.919 117.299 177.044 116.624 177.192 115.949C177.264 115.614 177.342 115.278 177.438 114.941C177.534 114.591 177.657 114.245 177.808 113.908C177.908 113.696 178.008 113.491 178.109 113.291C178.16 113.193 178.212 113.098 178.259 113.004L178.409 112.726C178.615 112.362 178.826 112.032 179.027 111.739C179.128 111.594 179.226 111.46 179.319 111.335C179.412 111.211 179.496 111.088 179.577 110.989C179.74 110.779 179.878 110.618 179.977 110.495C180.036 110.428 179.977 110.372 179.893 110.404L179.609 110.51C179.414 110.581 179.218 110.653 179.024 110.728L178.648 110.901Z" fill="url(#paint18_linear_15_68301)"/>
<path d="M218.773 104.998C218.632 105.273 218.472 105.548 218.314 105.825C218.062 106.236 217.795 106.647 217.515 107.058C217.327 107.334 217.137 107.609 216.936 107.88C216.734 108.152 216.524 108.418 216.312 108.686C216.056 109.006 215.795 109.324 215.527 109.639C215.252 109.952 214.969 110.256 214.684 110.562C214.521 110.735 214.357 110.906 214.19 111.077C214.024 111.246 213.858 111.415 213.684 111.579C213.337 111.907 212.983 112.23 212.631 112.545C212.431 112.719 212.23 112.891 212.03 113.059C211.826 113.226 211.62 113.389 211.412 113.553C210.996 113.874 210.576 114.186 210.152 114.487C209.682 114.811 209.202 115.117 208.724 115.408C208.484 115.554 208.245 115.695 208.005 115.833C207.765 115.97 207.518 116.098 207.276 116.225C206.99 116.372 206.706 116.514 206.422 116.648C206.165 116.772 205.91 116.888 205.655 116.999C205.401 117.11 205.141 117.211 204.887 117.308C204.378 117.503 203.874 117.678 203.384 117.833C202.894 117.987 202.396 118.115 201.916 118.23C201.437 118.345 200.965 118.437 200.506 118.517C200.048 118.598 199.595 118.658 199.153 118.706C198.711 118.754 198.29 118.786 197.88 118.81C197.469 118.833 197.075 118.844 196.695 118.846C196.315 118.847 195.943 118.833 195.596 118.817C194.966 118.787 194.339 118.73 193.717 118.647C193.442 118.61 193.186 118.572 192.95 118.524C192.714 118.476 192.499 118.438 192.3 118.4C191.892 118.317 191.491 118.214 191.098 118.091C191.098 118.091 191.188 118.01 191.361 117.866C191.534 117.722 191.794 117.517 192.112 117.249C192.431 116.981 192.831 116.674 193.291 116.329L193.647 116.062L194.022 115.78C194.279 115.589 194.55 115.39 194.837 115.186C195.414 114.783 196.023 114.341 196.692 113.902L197.72 113.232C198.072 113.006 198.435 112.781 198.81 112.557C198.995 112.445 199.189 112.336 199.377 112.223C199.565 112.109 199.759 111.998 199.953 111.887C200.342 111.665 200.742 111.447 201.156 111.236L201.771 110.916C201.976 110.811 202.185 110.708 202.397 110.607C202.82 110.402 203.254 110.208 203.692 110.021C204.177 109.807 204.663 109.601 205.15 109.404C205.394 109.306 205.636 109.21 205.879 109.118L206.598 108.839C207.076 108.656 207.553 108.485 208.028 108.324C208.264 108.243 208.503 108.166 208.738 108.09C208.972 108.013 209.202 107.939 209.435 107.868C209.886 107.73 210.337 107.621 210.776 107.52C211.215 107.419 211.663 107.332 212.099 107.231C213.032 107.038 213.936 106.76 214.795 106.403C215.353 106.157 215.876 105.89 216.357 105.624C216.597 105.49 216.827 105.357 217.046 105.225C217.261 105.092 217.462 104.959 217.647 104.83C218.215 104.453 218.753 104.047 219.26 103.615C219.346 103.541 219.422 103.573 219.383 103.668L219.257 103.969C219.167 104.175 219.075 104.379 218.977 104.586C218.911 104.724 218.844 104.861 218.773 104.998Z" fill="url(#paint19_linear_15_68301)"/>
<path d="M197.508 93.5267C197.298 93.6933 197.094 93.866 196.892 94.0449C196.581 94.3102 196.274 94.5828 195.978 94.8629C195.777 95.0504 195.583 95.2429 195.387 95.4353C195.192 95.6278 194.992 95.819 194.799 96.014C194.568 96.2496 194.348 96.4877 194.123 96.7308C193.897 96.9738 193.672 97.2095 193.457 97.4538C193.335 97.5932 193.215 97.7326 193.096 97.8732C192.977 98.0139 192.861 98.157 192.741 98.2964C192.504 98.5777 192.275 98.8615 192.054 99.1502C191.932 99.3093 191.815 99.4697 191.698 99.6301C191.58 99.7905 191.46 99.9472 191.346 100.108C191.117 100.428 190.9 100.752 190.695 101.08C190.465 101.435 190.244 101.79 190.042 102.149C189.942 102.33 189.845 102.51 189.751 102.69C189.656 102.87 189.56 103.046 189.471 103.225C189.371 103.434 189.271 103.643 189.17 103.853C189.085 104.043 189.005 104.232 188.931 104.422C188.858 104.612 188.781 104.792 188.712 104.981C188.575 105.351 188.456 105.721 188.354 106.091C188.252 106.461 188.159 106.814 188.082 107.17C188.005 107.525 187.944 107.874 187.894 108.218C187.844 108.562 187.802 108.899 187.771 109.227C187.739 109.556 187.72 109.878 187.709 110.192C187.699 110.507 187.699 110.809 187.709 111.108C187.72 111.406 187.721 111.684 187.738 111.955C187.769 112.501 187.825 113.001 187.888 113.447C187.921 113.669 187.957 113.879 187.992 114.07C188.026 114.261 188.062 114.44 188.097 114.594C188.235 115.23 188.365 115.591 188.365 115.591C188.365 115.591 188.468 115.529 188.656 115.41C188.844 115.29 189.119 115.115 189.446 114.875C189.772 114.636 190.167 114.347 190.602 114.012C190.711 113.927 190.824 113.84 190.935 113.747L191.277 113.458C191.508 113.259 191.747 113.048 191.992 112.827C192.487 112.389 192.979 111.886 193.479 111.347C193.604 111.214 193.729 111.077 193.854 110.939C193.978 110.8 194.097 110.655 194.217 110.51C194.458 110.219 194.696 109.92 194.927 109.612C195.043 109.458 195.162 109.305 195.268 109.144C195.375 108.982 195.486 108.821 195.592 108.659C195.804 108.332 196.008 107.999 196.2 107.659C196.298 107.49 196.385 107.315 196.474 107.141C196.563 106.967 196.646 106.79 196.725 106.612C196.886 106.258 197.038 105.9 197.166 105.536C197.305 105.125 197.432 104.718 197.546 104.317C197.602 104.116 197.656 103.916 197.705 103.719C197.755 103.521 197.794 103.319 197.833 103.122C197.909 102.725 197.971 102.335 198.018 101.952C198.041 101.76 198.063 101.571 198.075 101.381C198.087 101.191 198.096 101.002 198.101 100.814C198.106 100.461 198.089 100.108 198.048 99.7559C198.011 99.4117 197.963 99.0761 197.908 98.7344C197.782 98.0342 197.74 97.3255 197.784 96.6185C197.814 96.1645 197.872 95.7351 197.946 95.3379C197.984 95.1388 198.025 94.9488 198.068 94.7679C198.11 94.5853 198.15 94.4113 198.194 94.2473C198.323 93.7688 198.482 93.2961 198.671 92.8309C198.702 92.752 198.633 92.7075 198.558 92.763L198.323 92.9333C198.161 93.0493 197.996 93.1628 197.835 93.2812C197.719 93.3639 197.612 93.4453 197.508 93.5267Z" fill="url(#paint20_linear_15_68301)"/>
<path d="M233.943 78.4817C233.901 78.7766 233.846 79.0739 233.784 79.3749C233.689 79.8277 233.568 80.2805 233.441 80.732C233.354 81.038 233.268 81.3489 233.165 81.6487C233.061 81.9485 232.957 82.2582 232.844 82.5617C232.583 83.2933 232.267 84.015 231.93 84.7294C231.744 85.1341 231.533 85.5326 231.318 85.9274C231.103 86.3222 230.882 86.7132 230.645 87.0957C230.38 87.5168 230.107 87.9301 229.826 88.3356C229.549 88.7415 229.242 89.1326 228.938 89.5151C228.289 90.3295 227.574 91.1073 226.798 91.8432C226.578 92.0504 226.347 92.2503 226.126 92.4452C225.717 92.7969 225.308 93.1275 224.891 93.4322C224.475 93.737 224.049 94.0195 223.628 94.2811C223.419 94.4135 223.21 94.5397 223.001 94.6598C222.793 94.7799 222.581 94.8946 222.367 95.004C221.946 95.2245 221.53 95.4264 221.118 95.6098C220.71 95.7949 220.297 95.9577 219.895 96.1033C219.494 96.2489 219.098 96.3834 218.715 96.5018C218.002 96.7216 217.273 96.9038 216.532 97.0471C215.92 97.1671 215.301 97.2618 214.677 97.3309C214.119 97.3889 213.633 97.4172 213.232 97.4308C212.812 97.449 212.391 97.4461 211.971 97.4222C211.971 97.4222 212.204 97.0286 212.649 96.3797C213.094 95.7307 213.728 94.814 214.527 93.7604C214.935 93.2373 215.365 92.671 215.853 92.0936C216.098 91.8062 216.344 91.5088 216.604 91.2103C216.864 90.9117 217.132 90.6119 217.415 90.3109C218.563 89.0429 219.829 87.8492 221.2 86.7404C221.397 86.5825 221.597 86.427 221.802 86.2728L222.403 85.8163C222.797 85.5145 223.194 85.2221 223.594 84.9391C223.997 84.6566 224.386 84.379 224.785 84.1162C225.183 83.8534 225.581 83.598 225.987 83.3575C226.739 82.9175 227.518 82.5099 228.321 82.1361C229.148 81.7366 229.92 81.2642 230.622 80.7271C231.953 79.6446 233.078 78.4035 233.957 77.0456C234.014 76.9543 234.107 76.9679 234.094 77.0678C234.086 77.1727 234.08 77.2788 234.073 77.3837C234.061 77.6008 234.04 77.8167 234.017 78.0351C233.984 78.1868 233.964 78.3324 233.943 78.4817Z" fill="url(#paint21_linear_15_68301)"/>
<path d="M209.626 72.3267C209.48 72.5348 209.341 72.7491 209.206 72.9695C209.003 73.2989 208.797 73.632 208.605 73.9713C208.476 74.1995 208.357 74.4303 208.229 74.6597C208.101 74.8892 207.981 75.1224 207.864 75.3556C207.587 75.9194 207.309 76.4844 207.065 77.0581C206.93 77.3851 206.789 77.7096 206.659 78.0365C206.53 78.3634 206.413 78.6941 206.297 79.0235C206.168 79.385 206.049 79.7489 205.944 80.1129C205.839 80.4768 205.733 80.8383 205.643 81.2011C205.451 81.9804 205.308 82.7674 205.215 83.5588C205.188 83.7845 205.162 84.0091 205.144 84.2324C205.108 84.6358 205.097 85.0356 205.096 85.4266C205.094 85.8177 205.105 86.1977 205.133 86.574C205.147 86.7616 205.165 86.9441 205.186 87.1317C205.207 87.3192 205.225 87.5018 205.249 87.6758C205.299 88.0352 205.36 88.386 205.433 88.7282C205.508 89.0724 205.583 89.403 205.669 89.7263C205.754 90.0495 205.848 90.3629 205.948 90.6664C206.151 91.2758 206.362 91.8372 206.586 92.3529C206.81 92.8686 207.037 93.3399 207.261 93.7458C207.485 94.1517 207.682 94.507 207.862 94.7945C208.222 95.3694 208.474 95.6865 208.474 95.6865C208.474 95.6865 208.775 95.3472 209.257 94.7427C209.89 93.9138 210.462 93.0548 210.971 92.1703C211.29 91.6324 211.586 91.034 211.881 90.4048C212.031 90.0902 212.164 89.762 212.293 89.4277C212.422 89.0933 212.548 88.7491 212.664 88.4C213.142 86.9519 213.386 85.4587 213.39 83.9585C213.39 83.745 213.39 83.5341 213.378 83.3256C213.378 83.2207 213.371 83.1171 213.365 83.0122C213.359 82.9073 213.348 82.8049 213.341 82.7013C213.308 82.288 213.261 81.8821 213.204 81.4848C213.147 81.0876 213.066 80.6965 212.978 80.3165C212.891 79.9365 212.787 79.5651 212.678 79.2061C212.431 78.5375 212.13 77.8833 211.776 77.2481C211.414 76.6065 211.13 75.937 210.929 75.2495C210.803 74.8041 210.714 74.3772 210.651 73.9775C210.618 73.7776 210.595 73.5851 210.573 73.3988C210.55 73.2125 210.532 73.0349 210.519 72.8671C210.493 72.5303 210.484 72.2317 210.486 71.9825C210.487 71.7333 210.486 71.5297 210.498 71.3878C210.498 71.3052 210.421 71.2793 210.367 71.3484L210.199 71.568C210.084 71.7172 209.962 71.8653 209.847 72.017C209.774 72.1199 209.7 72.2231 209.626 72.3267Z" fill="url(#paint22_linear_15_68301)"/>
<path d="M239.709 49.6665C239.763 49.9601 239.808 50.2587 239.847 50.5622C239.904 51.0186 239.936 51.4813 239.964 51.9464C239.981 52.2598 239.997 52.5744 239.999 52.8902C240 53.2061 239.999 53.5219 239.99 53.8378C239.99 54.029 239.979 54.219 239.972 54.4102L239.958 54.6952L239.936 54.9814C239.906 55.3623 239.868 55.7427 239.823 56.1227C239.796 56.3386 239.772 56.5545 239.737 56.7679C239.703 56.9813 239.667 57.1972 239.628 57.4107C239.549 57.8363 239.465 58.2607 239.364 58.6814C239.147 59.5937 238.867 60.4954 238.527 61.3821C238.435 61.6202 238.339 61.8559 238.241 62.0891C238.192 62.205 238.142 62.321 238.091 62.4357C238.04 62.5505 237.983 62.6627 237.93 62.7762C237.711 63.2278 237.479 63.667 237.24 64.0902C237.1 64.3369 236.947 64.5837 236.789 64.8181C236.512 65.2466 236.226 65.6542 235.929 66.0407C235.632 66.4273 235.322 66.7925 234.998 67.1363C234.841 67.3078 234.68 67.4756 234.52 67.6384C234.361 67.8013 234.191 67.958 234.027 68.111C233.694 68.4153 233.361 68.7032 233.027 68.9746C232.861 69.1095 232.694 69.239 232.527 69.3632C232.359 69.4874 232.189 69.6071 232.017 69.7222C231.68 69.9542 231.345 70.1689 231.016 70.3687C230.687 70.5686 230.363 70.7524 230.042 70.9202C229.72 71.088 229.406 71.2422 229.102 71.3816C228.554 71.6345 227.99 71.8647 227.414 72.0713C226.901 72.2539 226.441 72.3908 226.06 72.4945C225.663 72.607 225.257 72.6997 224.846 72.7721C224.846 72.7721 224.937 72.3415 225.146 71.6173C225.244 71.2472 225.369 70.8153 225.527 70.3218C225.566 70.1985 225.608 70.0751 225.65 69.9406C225.692 69.8061 225.734 69.6754 225.779 69.5372C225.868 69.2621 225.966 68.9746 226.08 68.6736L226.417 67.7507C226.536 67.4336 226.662 67.1079 226.799 66.7748C226.935 66.4417 227.074 66.1024 227.224 65.7582C227.374 65.414 227.537 65.0636 227.705 64.7108C227.874 64.3579 228.044 64.0014 228.23 63.6436C228.323 63.4659 228.419 63.2874 228.519 63.1081C228.618 62.9288 228.718 62.7491 228.819 62.569C229.02 62.2095 229.235 61.8522 229.466 61.4969C229.693 61.1403 229.917 60.785 230.171 60.4358C230.733 59.6536 231.283 58.8961 231.87 58.1744L232.304 57.6402C232.455 57.4637 232.596 57.291 232.743 57.1195C233.044 56.7782 233.345 56.4467 233.645 56.1251C234.225 55.5359 234.841 54.9717 235.492 54.4349C236.152 53.8676 236.735 53.2434 237.231 52.5732C237.545 52.1241 237.817 51.6738 238.055 51.2407C238.172 51.0248 238.285 50.8126 238.381 50.6066C238.477 50.4005 238.565 50.2019 238.644 50.0119C238.804 49.6319 238.93 49.2865 239.029 48.9941C239.128 48.7017 239.19 48.4623 239.234 48.2933C239.259 48.1934 239.346 48.1872 239.373 48.2847C239.402 48.3871 239.431 48.4907 239.458 48.5931C239.518 48.8053 239.567 49.0175 239.618 49.2322C239.651 49.3761 239.681 49.5209 239.709 49.6665Z" fill="url(#paint23_linear_15_68301)"/>
<path d="M214.269 49.1197C214.197 49.3541 214.134 49.591 214.077 49.8315C213.988 50.1955 213.901 50.5619 213.829 50.9308C213.779 51.1775 213.739 51.4243 213.694 51.6784C213.648 51.9326 213.606 52.1794 213.569 52.431C213.548 52.5816 213.527 52.7333 213.509 52.8838L213.482 53.1121L213.452 53.3391C213.414 53.6426 213.382 53.9461 213.36 54.2508L213.324 54.7678C213.31 54.9405 213.3 55.1132 213.291 55.2847C213.273 55.6289 213.268 55.9744 213.267 56.3173C213.252 57.0736 213.297 57.8274 213.357 58.5652C213.375 58.7688 213.397 58.9699 213.423 59.171C213.449 59.3721 213.479 59.5707 213.504 59.7681C213.562 60.1646 213.635 60.5548 213.722 60.939C213.773 61.1647 213.82 61.3856 213.872 61.6064C213.973 62.0037 214.092 62.3923 214.224 62.7698C214.357 63.1474 214.487 63.5101 214.638 63.8691C214.714 64.048 214.788 64.2232 214.874 64.3971C214.959 64.5711 215.033 64.7401 215.117 64.9067C215.284 65.2423 215.459 65.5671 215.644 65.8813C215.735 66.038 215.828 66.1935 215.923 66.3452C216.018 66.497 216.108 66.645 216.203 66.7918C216.393 67.083 216.587 67.3639 216.785 67.6345C216.982 67.9047 217.185 68.165 217.386 68.4118C217.587 68.6585 217.777 68.8929 217.969 69.115C218.357 69.5616 218.735 69.9589 219.085 70.3043C219.435 70.6498 219.746 70.9409 220.016 71.1766C220.554 71.6491 220.904 71.8959 220.904 71.8959C220.904 71.8959 221.086 71.5011 221.339 70.8102C221.457 70.4647 221.594 70.044 221.734 69.5628C221.769 69.4395 221.803 69.3161 221.839 69.1927L221.937 68.7979C222 68.5273 222.063 68.244 222.125 67.9479C222.155 67.8011 222.183 67.6505 222.212 67.4963C222.241 67.3421 222.263 67.1867 222.286 67.0275C222.333 66.7092 222.374 66.3802 222.411 66.0405C222.45 65.7049 222.465 65.3582 222.481 65.0066C222.498 64.655 222.502 64.2972 222.496 63.9357C222.49 63.5742 222.465 63.2041 222.433 62.8352C222.417 62.6502 222.398 62.4651 222.376 62.28C222.353 62.095 222.323 61.9099 222.292 61.7212C222.229 61.3477 222.152 60.9751 222.062 60.6034C221.968 60.2333 221.853 59.8631 221.726 59.493C221.45 58.6965 221.118 57.9139 220.731 57.1489C220.685 57.0564 220.638 56.9651 220.59 56.8738C220.542 56.7825 220.489 56.6924 220.439 56.6023C220.337 56.4234 220.235 56.247 220.128 56.0731C219.918 55.7264 219.7 55.392 219.468 55.07C219.014 54.4801 218.511 53.9158 217.965 53.381C217.404 52.8431 216.911 52.2603 216.493 51.6414C216.225 51.2405 216 50.8481 215.807 50.4768C215.71 50.2917 215.626 50.1067 215.543 49.9364C215.46 49.7661 215.383 49.5959 215.316 49.4429C215.18 49.1246 215.075 48.8384 214.994 48.5978C214.913 48.3572 214.844 48.1598 214.811 48.0216C214.788 47.9402 214.701 47.934 214.672 48.013L214.581 48.2597C214.52 48.43 214.451 48.599 214.39 48.7705C214.345 48.8828 214.305 48.9963 214.269 49.1197Z" fill="url(#paint24_linear_15_68301)"/>
<path d="M235.842 20.6485C235.917 20.7826 235.991 20.9195 236.063 21.0594C236.134 21.1975 236.2 21.3394 236.268 21.4813C236.468 21.9107 236.66 22.3449 236.839 22.7903C236.955 23.0889 237.067 23.3899 237.176 23.6934C237.281 23.9969 237.391 24.3004 237.476 24.6089C237.7 25.3491 237.906 26.0894 238.058 26.8506C238.245 27.7031 238.359 28.5643 238.454 29.4168C238.494 29.8881 238.521 30.3581 238.536 30.8232C238.536 30.9392 238.536 31.0552 238.536 31.1712C238.536 31.2871 238.536 31.4031 238.536 31.5178C238.536 31.7486 238.527 31.978 238.517 32.2063C238.506 32.453 238.493 32.6998 238.473 32.9465C238.454 33.1933 238.424 33.44 238.392 33.6781C238.33 34.1618 238.26 34.6343 238.156 35.0957C238.099 35.3659 238.034 35.6324 237.967 35.8939C237.526 37.5909 236.76 39.2197 235.696 40.7191C235.46 41.0481 235.218 41.3623 234.972 41.6617C234.724 41.959 234.47 42.2403 234.22 42.5044C233.752 42.9954 233.247 43.4619 232.707 43.901C231.922 44.5473 231.064 45.1303 230.143 45.6418C229.795 45.8374 229.434 46.0162 229.062 46.1772C229.062 46.1772 229.05 46.0687 229.032 45.8663C229.014 45.664 228.995 45.3728 228.97 45.0027C228.944 44.6326 228.925 44.1823 228.916 43.6715C228.907 43.1607 228.892 42.587 228.907 41.9677C228.907 40.7339 228.995 39.3003 229.171 37.7939C229.195 37.6052 229.221 37.4152 229.25 37.2252C229.278 37.0352 229.305 36.8427 229.334 36.6502C229.394 36.2653 229.465 35.8767 229.549 35.4856C229.633 35.0945 229.713 34.7034 229.815 34.3111C229.866 34.1137 229.923 33.9175 229.977 33.7213C230.031 33.5251 230.09 33.329 230.152 33.1328C230.221 32.9149 230.292 32.6973 230.365 32.4802C230.438 32.263 230.511 32.0488 230.585 31.8374C230.732 31.4122 230.887 30.9935 231.051 30.5814C231.212 30.1694 231.372 29.7672 231.548 29.3724C231.724 28.9776 231.906 28.5914 232.09 28.2151C232.45 27.4835 232.903 26.8419 233.315 26.1794C233.524 25.8475 233.727 25.5095 233.916 25.1505C234.11 24.7762 234.27 24.3906 234.394 23.9969C234.476 23.7502 234.545 23.4948 234.606 23.2493C234.668 23.0038 234.715 22.7644 234.757 22.53C234.839 22.0612 234.896 21.6158 234.925 21.2136C234.967 20.6186 234.967 20.0221 234.925 19.4271C234.916 19.3247 234.999 19.3038 235.057 19.3889C235.119 19.4814 235.181 19.5739 235.239 19.6677C235.361 19.8602 235.483 20.0526 235.602 20.2488C235.69 20.3808 235.767 20.5141 235.842 20.6485Z" fill="url(#paint25_linear_15_68301)"/>
<path d="M211.164 25.7251C211.164 25.8485 211.173 25.9657 211.182 26.0866C211.191 26.2075 211.197 26.3333 211.208 26.4567C211.238 26.8268 211.281 27.197 211.332 27.5671C211.365 27.8138 211.401 28.0639 211.441 28.3172C211.478 28.564 211.529 28.8107 211.571 29.0661C211.678 29.6682 211.817 30.2665 211.961 30.8649C212.135 31.5398 212.319 32.2134 212.547 32.8734C212.664 33.2403 212.793 33.6022 212.932 33.9591L213.144 34.4921C213.215 34.6685 213.294 34.845 213.367 35.0189C213.439 35.1929 213.539 35.3989 213.63 35.5864C213.72 35.774 213.807 35.9566 213.9 36.1453C214.085 36.5155 214.29 36.8732 214.49 37.2249C214.61 37.4309 214.733 37.6345 214.86 37.8331C215.711 39.1731 216.751 40.4262 217.96 41.5664C218.236 41.8292 218.517 42.0809 218.8 42.3202C219.083 42.5596 219.356 42.7891 219.633 43.0062C220.188 43.4405 220.741 43.8291 221.255 44.1746C222.095 44.7333 222.978 45.246 223.9 45.7093C224.572 46.0462 224.99 46.2028 224.99 46.2028C224.99 46.2028 225 46.098 225.014 45.903C225.027 45.7081 225.048 45.4219 225.051 45.0616C225.054 44.7014 225.051 44.2671 225.027 43.7724C225.003 43.2776 224.949 42.7249 224.877 42.129C224.699 40.7925 224.379 39.4714 223.919 38.181C223.858 38.0071 223.791 37.8331 223.724 37.6579C223.656 37.4827 223.573 37.31 223.504 37.1348C223.349 36.7852 223.183 36.4377 223.007 36.0923C222.822 35.7468 222.625 35.4039 222.414 35.067C222.309 34.898 222.204 34.7302 222.088 34.5649C221.972 34.3996 221.855 34.2355 221.733 34.0714C221.611 33.9073 221.46 33.7124 221.321 33.536C221.251 33.4484 221.181 33.3608 221.111 33.2744C221.04 33.188 220.96 33.1017 220.896 33.0178C220.606 32.6773 220.311 32.3483 220.01 32.0308C219.71 31.7162 219.394 31.4139 219.08 31.1265C218.765 30.839 218.445 30.5651 218.113 30.306C217.484 29.8354 216.814 29.4032 216.107 29.013C215.768 28.8132 215.429 28.6108 215.099 28.39C214.754 28.1646 214.428 27.9214 214.121 27.6621C213.93 27.498 213.748 27.3339 213.577 27.1686C213.406 27.0033 213.239 26.8466 213.085 26.6887C212.774 26.3741 212.508 26.0718 212.274 25.7954C211.928 25.3919 211.611 24.973 211.322 24.5407C211.272 24.4667 211.187 24.4803 211.185 24.5617C211.185 24.648 211.185 24.7344 211.178 24.8208C211.178 24.9984 211.163 25.1761 211.161 25.355C211.154 25.4858 211.155 25.6054 211.164 25.7251Z" fill="url(#paint26_linear_15_68301)"/>
<path d="M110.197 151.94C110.362 151.751 110.521 151.56 110.691 151.374L111.202 150.82L111.732 150.277C111.911 150.097 112.095 149.922 112.277 149.745C113.012 149.044 113.784 148.372 114.594 147.729C116.206 146.451 117.937 145.278 119.772 144.221C120.685 143.692 121.616 143.188 122.564 142.708C123.512 142.228 124.475 141.773 125.453 141.342C127.408 140.479 129.412 139.695 131.448 138.986C132.463 138.632 133.498 138.291 134.542 137.979C135.585 137.667 136.635 137.378 137.689 137.107C139.793 136.564 141.919 136.093 144.036 135.635L147.205 134.954C147.733 134.839 148.25 134.718 148.773 134.601L149.555 134.423C149.817 134.365 150.074 134.3 150.334 134.233L151.888 133.848L153.433 133.436L154.205 133.228L154.971 133.007C155.48 132.858 155.993 132.713 156.501 132.56C164.648 130.099 172.382 126.799 179.517 122.741L180.849 121.974C181.29 121.715 181.724 121.447 182.162 121.184L182.817 120.789L183.462 120.382L184.751 119.567L186.018 118.728C186.227 118.587 186.442 118.45 186.649 118.306L187.27 117.875L187.893 117.443C188.099 117.299 188.309 117.158 188.511 117.009L189.732 116.124C191.343 114.933 192.929 113.712 194.448 112.439L195.022 111.964C195.118 111.885 195.212 111.805 195.305 111.724L195.586 111.477L196.708 110.507C197.076 110.18 197.438 109.848 197.805 109.52L198.352 109.027L198.888 108.522L199.956 107.512L200.998 106.484C201.171 106.312 201.347 106.142 201.517 105.968L202.025 105.445C202.362 105.095 202.705 104.749 203.037 104.396C203.691 103.685 204.362 102.983 204.991 102.256L205.471 101.714C205.63 101.534 205.793 101.355 205.945 101.17L206.875 100.071C207.189 99.7008 207.484 99.3307 207.786 98.9605L208.237 98.4029C208.388 98.2178 208.538 98.0328 208.679 97.8403C208.97 97.4628 209.266 97.0877 209.553 96.7102L210.404 95.5665L210.614 95.2815L210.82 94.9916L211.232 94.4142L211.644 93.8356L212.043 93.252L212.441 92.6672C212.573 92.4723 212.709 92.2786 212.835 92.0812L213.603 90.9005C217.651 84.5626 220.81 77.8688 223.021 70.9471C225.239 64.0179 226.517 56.9086 226.83 49.7489C226.915 47.9599 226.925 46.171 226.883 44.3784C226.841 42.5857 226.745 40.8005 226.582 39.0116C226.42 37.2226 226.197 35.4423 225.916 33.6645C225.635 31.8867 225.3 30.1162 224.896 28.3594C225.324 30.1175 225.683 31.8867 225.989 33.6645C226.294 35.4423 226.539 37.2226 226.725 39.0091C226.912 40.7955 227.026 42.587 227.1 44.3808C227.173 46.1747 227.178 47.9698 227.118 49.7637C226.899 56.9517 225.712 64.0979 223.578 71.0717C221.447 78.0561 218.357 84.8199 214.37 91.2336L213.611 92.4303C213.486 92.6302 213.352 92.8276 213.221 93.025L212.829 93.6172L212.435 94.2094L212.028 94.7967L211.62 95.3827L211.417 95.6763L211.207 95.9662L210.365 97.126C210.081 97.5109 209.787 97.8909 209.499 98.2746C209.348 98.4646 209.212 98.6583 209.061 98.8458L208.61 99.4121C208.31 99.7896 208.018 100.171 207.708 100.541L206.784 101.659C206.633 101.846 206.471 102.029 206.311 102.211L205.835 102.762C205.209 103.502 204.542 104.216 203.889 104.941C203.559 105.301 203.217 105.654 202.882 106.009L202.377 106.543C202.207 106.72 202.031 106.892 201.86 107.068L200.819 108.116L199.753 109.146L199.22 109.661L198.674 110.167C198.307 110.502 197.945 110.842 197.578 111.176L196.456 112.163L196.177 112.41C196.084 112.492 195.989 112.575 195.893 112.656L195.32 113.141C193.8 114.444 192.212 115.691 190.598 116.914L189.374 117.821C189.172 117.973 188.96 118.118 188.754 118.266L188.13 118.708L187.505 119.15C187.297 119.298 187.082 119.438 186.872 119.583L185.6 120.446L184.306 121.284L183.658 121.702L182.999 122.109C182.559 122.38 182.123 122.655 181.679 122.921L180.34 123.711C173.149 127.896 165.341 131.317 157.102 133.892C156.587 134.051 156.068 134.203 155.551 134.359L154.775 134.591L153.993 134.81L152.428 135.244L150.851 135.65C150.588 135.716 150.326 135.788 150.062 135.85L149.268 136.037C148.739 136.16 148.216 136.291 147.68 136.407L144.523 137.117C142.418 137.592 140.332 138.076 138.279 138.626C137.252 138.899 136.233 139.187 135.229 139.5C134.225 139.814 133.237 140.147 132.246 140.503C130.269 141.211 128.338 141.993 126.455 142.847C125.517 143.274 124.594 143.722 123.685 144.19C122.777 144.658 121.892 145.151 121.029 145.67C119.3 146.69 117.67 147.818 116.155 149.046C115.403 149.663 114.683 150.296 114.003 150.959C113.835 151.127 113.664 151.291 113.5 151.461L113.013 151.972L112.542 152.494C112.392 152.668 112.241 152.848 112.091 153.025C112.05 153.071 112.01 153.116 111.969 153.16C111.929 153.205 111.888 153.247 111.846 153.284C111.764 153.364 111.677 153.44 111.584 153.512C111.497 153.579 111.404 153.642 111.308 153.699C111.221 153.755 111.129 153.805 111.033 153.849C110.664 154.017 110.294 154.06 110.018 153.93C109.741 153.801 109.615 153.519 109.637 153.162C109.643 153.067 109.657 152.973 109.681 152.88C109.709 152.78 109.745 152.681 109.789 152.584C109.836 152.48 109.891 152.378 109.952 152.278C110.016 152.172 110.091 152.07 110.174 151.973L110.197 151.94Z" fill="url(#paint27_linear_15_68301)"/>
</g>
<defs>
<linearGradient id="paint0_linear_15_68301" x1="20.7367" y1="0.0507812" x2="20.7367" y2="28.1111" gradientUnits="userSpaceOnUse">
<stop stop-color="#0DE3D6"/>
<stop offset="1" stop-color="#02B1AC"/>
</linearGradient>
<linearGradient id="paint1_linear_15_68301" x1="96.2812" y1="122.629" x2="96.2812" y2="138.041" gradientUnits="userSpaceOnUse">
<stop stop-color="#0DE3D6"/>
<stop offset="1" stop-color="#02B1AC"/>
</linearGradient>
<linearGradient id="paint2_linear_15_68301" x1="90.7131" y1="138.961" x2="90.7131" y2="145.915" gradientUnits="userSpaceOnUse">
<stop stop-color="#0DE3D6"/>
<stop offset="1" stop-color="#02B1AC"/>
</linearGradient>
<linearGradient id="paint3_linear_15_68301" x1="69.006" y1="110.395" x2="69.006" y2="129.659" gradientUnits="userSpaceOnUse">
<stop stop-color="#0DE3D6"/>
<stop offset="1" stop-color="#02B1AC"/>
</linearGradient>
<linearGradient id="paint4_linear_15_68301" x1="60.1681" y1="125.723" x2="60.1681" y2="135.539" gradientUnits="userSpaceOnUse">
<stop stop-color="#0DE3D6"/>
<stop offset="1" stop-color="#02B1AC"/>
</linearGradient>
<linearGradient id="paint5_linear_15_68301" x1="46.8263" y1="92.75" x2="46.8263" y2="115.594" gradientUnits="userSpaceOnUse">
<stop stop-color="#0DE3D6"/>
<stop offset="1" stop-color="#02B1AC"/>
</linearGradient>
<linearGradient id="paint6_linear_15_68301" x1="34.755" y1="103.574" x2="34.755" y2="118.846" gradientUnits="userSpaceOnUse">
<stop stop-color="#0DE3D6"/>
<stop offset="1" stop-color="#02B1AC"/>
</linearGradient>
<linearGradient id="paint7_linear_15_68301" x1="30.7579" y1="71.3086" x2="30.7579" y2="95.6865" gradientUnits="userSpaceOnUse">
<stop stop-color="#0DE3D6"/>
<stop offset="1" stop-color="#02B1AC"/>
</linearGradient>
<linearGradient id="paint8_linear_15_68301" x1="16.9688" y1="76.9844" x2="16.9688" y2="97.4426" gradientUnits="userSpaceOnUse">
<stop stop-color="#0DE3D6"/>
<stop offset="1" stop-color="#02B1AC"/>
</linearGradient>
<linearGradient id="paint9_linear_15_68301" x1="22.1173" y1="47.957" x2="22.1173" y2="71.8959" gradientUnits="userSpaceOnUse">
<stop stop-color="#0DE3D6"/>
<stop offset="1" stop-color="#02B1AC"/>
</linearGradient>
<linearGradient id="paint10_linear_15_68301" x1="7.57985" y1="48.2148" x2="7.57985" y2="72.7745" gradientUnits="userSpaceOnUse">
<stop stop-color="#0DE3D6"/>
<stop offset="1" stop-color="#02B1AC"/>
</linearGradient>
<linearGradient id="paint11_linear_15_68301" x1="21.8985" y1="24.4922" x2="21.8985" y2="46.2028" gradientUnits="userSpaceOnUse">
<stop stop-color="#0DE3D6"/>
<stop offset="1" stop-color="#02B1AC"/>
</linearGradient>
<linearGradient id="paint12_linear_15_68301" x1="6.27361" y1="19.3398" x2="6.27361" y2="46.1811" gradientUnits="userSpaceOnUse">
<stop stop-color="#0DE3D6"/>
<stop offset="1" stop-color="#02B1AC"/>
</linearGradient>
<linearGradient id="paint13_linear_15_68301" x1="71.6036" y1="28.3477" x2="71.6036" y2="154.002" gradientUnits="userSpaceOnUse">
<stop stop-color="#0DE3D6"/>
<stop offset="1" stop-color="#02B1AC"/>
</linearGradient>
<linearGradient id="paint14_linear_15_68301" x1="219.191" y1="0" x2="219.191" y2="28.0949" gradientUnits="userSpaceOnUse">
<stop stop-color="#0DE3D6"/>
<stop offset="1" stop-color="#02B1AC"/>
</linearGradient>
<linearGradient id="paint15_linear_15_68301" x1="149.284" y1="138.961" x2="149.284" y2="145.915" gradientUnits="userSpaceOnUse">
<stop stop-color="#0DE3D6"/>
<stop offset="1" stop-color="#02B1AC"/>
</linearGradient>
<linearGradient id="paint16_linear_15_68301" x1="143.736" y1="122.641" x2="143.736" y2="138.053" gradientUnits="userSpaceOnUse">
<stop stop-color="#0DE3D6"/>
<stop offset="1" stop-color="#02B1AC"/>
</linearGradient>
<linearGradient id="paint17_linear_15_68301" x1="179.828" y1="125.723" x2="179.828" y2="135.536" gradientUnits="userSpaceOnUse">
<stop stop-color="#0DE3D6"/>
<stop offset="1" stop-color="#02B1AC"/>
</linearGradient>
<linearGradient id="paint18_linear_15_68301" x1="170.996" y1="110.395" x2="170.996" y2="129.659" gradientUnits="userSpaceOnUse">
<stop stop-color="#0DE3D6"/>
<stop offset="1" stop-color="#02B1AC"/>
</linearGradient>
<linearGradient id="paint19_linear_15_68301" x1="205.246" y1="103.574" x2="205.246" y2="118.846" gradientUnits="userSpaceOnUse">
<stop stop-color="#0DE3D6"/>
<stop offset="1" stop-color="#02B1AC"/>
</linearGradient>
<linearGradient id="paint20_linear_15_68301" x1="193.19" y1="92.7383" x2="193.19" y2="115.591" gradientUnits="userSpaceOnUse">
<stop stop-color="#0DE3D6"/>
<stop offset="1" stop-color="#02B1AC"/>
</linearGradient>
<linearGradient id="paint21_linear_15_68301" x1="223.033" y1="76.9844" x2="223.033" y2="97.4426" gradientUnits="userSpaceOnUse">
<stop stop-color="#0DE3D6"/>
<stop offset="1" stop-color="#02B1AC"/>
</linearGradient>
<linearGradient id="paint22_linear_15_68301" x1="209.243" y1="71.3086" x2="209.243" y2="95.6865" gradientUnits="userSpaceOnUse">
<stop stop-color="#0DE3D6"/>
<stop offset="1" stop-color="#02B1AC"/>
</linearGradient>
<linearGradient id="paint23_linear_15_68301" x1="232.423" y1="48.2148" x2="232.423" y2="72.7721" gradientUnits="userSpaceOnUse">
<stop stop-color="#0DE3D6"/>
<stop offset="1" stop-color="#02B1AC"/>
</linearGradient>
<linearGradient id="paint24_linear_15_68301" x1="217.881" y1="47.957" x2="217.881" y2="71.8959" gradientUnits="userSpaceOnUse">
<stop stop-color="#0DE3D6"/>
<stop offset="1" stop-color="#02B1AC"/>
</linearGradient>
<linearGradient id="paint25_linear_15_68301" x1="233.718" y1="19.3359" x2="233.718" y2="46.1772" gradientUnits="userSpaceOnUse">
<stop stop-color="#0DE3D6"/>
<stop offset="1" stop-color="#02B1AC"/>
</linearGradient>
<linearGradient id="paint26_linear_15_68301" x1="218.104" y1="24.4922" x2="218.104" y2="46.2028" gradientUnits="userSpaceOnUse">
<stop stop-color="#0DE3D6"/>
<stop offset="1" stop-color="#02B1AC"/>
</linearGradient>
<linearGradient id="paint27_linear_15_68301" x1="168.397" y1="28.3594" x2="168.397" y2="154.006" gradientUnits="userSpaceOnUse">
<stop stop-color="#0DE3D6"/>
<stop offset="1" stop-color="#02B1AC"/>
</linearGradient>
<clipPath id="clip0_15_68301">
<rect width="240" height="154" fill="white"/>
</clipPath>
</defs>
</svg>
